<svg width="745" height="677" viewBox="0 0 745 677" fill="none" xmlns="http://www.w3.org/2000/svg">
<path d="M43.83 366.51C78.55 324.45 182.22 294.54 211.34 224.32C240.46 154.1 354.94 -58.9 543.47 15.74C732 90.38 744.99 220.72 744.99 220.72V627.05C744.99 627.05 717.38 674.74 501.67 676.64C285.96 678.54 -136.91 585.47 43.83 366.51Z" fill="#EBF5FF"/>
<path d="M369.07 170.23C369.07 170.23 341.6 190.75 318.54 177.98C295.48 165.21 322.65 172.6 330.37 166.83C338.09 161.06 332.17 156.03 326.96 155.63C321.74 155.22 292.2 151.21 294.95 140.06C297.71 128.9 313.32 147.92 317.38 138.89C321.44 129.86 320.48 138.4 302.31 127.91C287.4 119.3 286.82 100.05 290.64 97.8901C297.39 94.0701 305.57 109.67 310.16 106.9C314.75 104.13 295.29 88.7901 301.07 75.0101C306.85 61.2301 313.05 54.0701 313.05 54.0701C313.05 54.0701 316.76 59.3501 328.23 67.2701C339.71 75.1901 349.2 80.7501 345.35 94.4401C341.5 108.13 354.48 101.67 352.9 85.6101C351.33 69.5501 359.87 68.8001 362.86 81.8201C365.61 93.7901 367.77 108.85 369.18 113.31C370.59 117.77 370.08 117.94 371.37 106.56C372.67 95.1801 381.71 91.9301 385.9 96.4201C390.09 100.91 382.65 134.13 370.97 137.75C359.29 141.38 368.58 159.77 381.04 141.21C393.49 122.65 396.52 120.03 397.52 134.07C398.53 148.08 381.45 163.27 369.07 170.23Z" fill="url(#paint0_linear_112_104)"/>
<path d="M354.91 158.03C341.9 150.62 313.34 138.2 303.09 150.03C302.83 150.33 321.39 161.02 324.58 161.27C329.8 161.68 328.2 163.98 320.48 169.75C312.77 175.52 302.43 157.9 325.49 170.66C341.25 179.39 357.39 175.26 367.1 170.07C363.81 165.76 359.65 160.73 354.91 158.03Z" fill="#4F7ACE"/>
<path d="M415.9 226.89C403.61 219.09 403.31 224.29 407.37 216.78C409.13 213.53 412.3 214.78 415.76 216.97L424.36 208.16C417.34 204.72 401.16 198.28 398.79 197.64C393.58 196.22 387.96 189.9 396.05 185.4C400.57 182.89 410.94 185.78 415.3 185.75L415.24 181.82C413.85 180.42 411.7 178.56 408.59 176.12C386.25 158.52 357.43 174.49 357.43 174.49C344.59 179.32 326.53 191.77 326.67 206.48C326.81 221.19 330 219.05 343.63 202.24C357.26 185.43 365.45 206.22 353.51 207.74C341.57 209.26 332.07 242.18 336 247.63C339.93 253.08 349.19 251.44 351.19 239.92C353.19 228.4 363.42 227.1 364.56 231.98C365.7 236.86 354.18 251.15 351.18 264.36C348.18 277.57 369.02 282.02 368.43 265.11C367.84 248.2 387.87 234.04 383.17 247.46C378.47 260.88 377.88 275.34 388.91 285.72C399.94 296.1 406.48 305.32 406.48 305.32C406.48 305.32 423.62 294.91 422.22 274.64L415.9 226.89Z" fill="#5D93D4"/>
<path d="M309.86 165.46C312.31 173.31 304.95 172.61 300.86 171.04C296.77 169.47 278.81 168.46 273.05 176.19C266.18 185.42 292.81 187.72 290.19 193.08C287.11 199.38 284.88 201.56 271.85 196.59C254.88 190.12 239.22 203.8 243.03 208.86C246.84 213.92 266.75 214.25 268.58 218.35C270.41 222.45 257.17 221.71 250.39 234.54C242.7 249.11 246.34 265.43 246.57 267.48C248.56 268 264.34 274.14 279.86 268.63C293.53 263.78 298.96 253.69 302.75 256.09C306.54 258.49 299.75 275.12 304.21 279.63C308.67 284.13 324.47 270.61 320.51 252.88C317.47 239.27 319.41 233.18 326.09 231.04C331.77 229.23 330.41 251.66 341.6 248.98C352.79 246.3 348.06 223.2 347.1 218.92C346.14 214.64 347.38 209.13 354.79 212.69C362.2 216.25 357.69 244.13 370.96 223.59C376.69 214.71 374.94 196.85 364.67 178.99C361.09 172.76 355.91 167.6 349.67 164.04C336.66 156.63 312.64 144.1 304.02 149.43C290.07 158.05 307.4 157.61 309.86 165.46Z" fill="#95C1F5"/>
<path d="M248.16 268.57C248.04 268.57 247.91 268.53 247.8 268.45C247.53 268.25 247.48 267.87 247.67 267.61C248.26 266.81 307.3 187.44 355.99 168.12C356.3 168 356.65 168.15 356.77 168.46C356.89 168.77 356.74 169.12 356.43 169.24C308.06 188.43 249.22 267.53 248.63 268.33C248.52 268.49 248.34 268.57 248.16 268.57Z" fill="white"/>
<path d="M351.03 278.6C350.79 281.54 348.76 283.96 346.03 284.78C346.71 285.55 346.71 285.55 346.71 285.55C331.71 291.54 329.81 294.28 323.67 294.78C317.7 295.26 313.03 294.31 311.01 293.78C305.1 292.55 296.5 288.01 296.5 288.01C296.81 286.94 297.41 286.19 298.21 285.71C294.81 284.25 292.13 282.83 292.13 282.83C292.65 281.03 293.98 280.17 295.7 279.92C291.16 278 287.77 275.94 287.77 274.08C287.79 266.68 306.32 276.33 306.32 276.33C306.32 276.33 324.95 276.27 325.16 275.74C325.25 275.52 326.95 274.93 326.94 273.66C326.92 271.52 325.95 271.39 323.78 271.02L316.07 270.77C316.07 270.77 305.53 270.76 306.79 266.77C307.93 263.19 316.6 265.26 316.6 265.26L332.85 263.96L343.36 267.07C348.25 268.51 351.45 273.18 351.04 278.26L351.03 278.6Z" fill="#F5A086"/>
<path d="M43.8298 366.51C137.48 248.78 720.42 534.58 720.42 534.58C720.42 534.58 707.68 644.74 491.97 646.65C276.26 648.56 -132.92 588.71 43.8298 366.51Z" fill="#C9DFF2"/>
<path d="M49.4302 550.88C49.4302 550.88 109.27 446.2 312.78 502.56C450.66 540.74 539.34 572.14 583.84 597.16C600.51 606.53 595.2 631.81 576.19 633.84C471.4 645.01 195.03 661.83 49.4302 550.88Z" fill="#A8C8E3"/>
<path d="M332.36 531.47C478.627 531.47 597.2 478.483 597.2 413.12C597.2 347.757 478.627 294.77 332.36 294.77C186.093 294.77 67.52 347.757 67.52 413.12C67.52 478.483 186.093 531.47 332.36 531.47Z" fill="#95C1F5"/>
<path d="M513.95 156.05C513.95 156.05 604.45 170.99 600.28 238.42C596.11 305.85 580.08 407.83 580.08 407.83L434.17 358.23L445.39 145.29L513.95 156.05Z" fill="#95C1F5"/>
<path d="M432.19 314.73L406.19 362.03L505.59 398.1C505.59 398.1 547.48 370.37 521.75 318.66L482.95 325.38L432.19 314.73Z" fill="#2F4C9C"/>
<path d="M501.84 90.8C501.84 90.8 536.41 93.5401 535.64 132.65C535.13 158.7 581.81 172.57 575.11 194.43C568.41 216.29 596.48 241.52 564.22 249.64C531.96 257.76 498.51 236.65 491.14 198.19C483.78 159.73 476.07 136 480.96 115.8L501.84 90.8Z" fill="#5370BD"/>
<path d="M454.25 175.83L556.25 251.49C564.28 205.34 514.41 190.67 515.47 144.24L501.77 121.72L459.38 111.53L446.65 159.85C444.95 166.32 448.16 173.07 454.25 175.83Z" fill="#344982"/>
<path d="M446.12 157.39C446.12 157.39 425.52 149.11 434.3 129.68C439.75 117.61 469.67 111.6 469.67 111.6L446.12 157.39Z" fill="#344982"/>
<path d="M443.4 133.64C443.4 133.64 424.11 180.12 447.26 179.08L454.64 179.68C454.64 179.68 451.5 163.92 455.95 132.64L443.4 133.64Z" fill="#5169A8"/>
<path d="M388.56 297.5C383.53 297.5 377.85 296.51 371.32 294.6L335.6 284.44C330.19 282.9 327.05 277.27 328.59 271.86C330.13 266.45 335.76 266.65 341.16 268.19L376.96 275.03C384.51 277.24 389.98 275.81 392.62 274.64C394.95 273.61 396.86 272.19 399.78 266.02L433.74 194.31C436.15 189.23 442.22 187.06 447.3 189.47C452.38 191.88 454.55 197.95 452.14 203.03L418.18 274.74C410.78 290.39 402.03 297.5 388.56 297.5Z" fill="#F5A086"/>
<path d="M390.67 268.34C395.54 275.14 403.9 287.48 420.76 283.91C420.76 283.91 463.48 210.01 457.96 186.36C452.44 162.71 432.72 176.9 426.57 190.36C421.71 201.01 413.89 227.99 408.67 236.27C406.03 240.46 398.43 256.28 396.24 258.49C393.98 260.77 388.79 265.73 390.67 268.34Z" fill="#95C1F5"/>
<path d="M407.99 283.49C411.6 284.64 415.82 284.96 420.76 283.92C420.76 283.92 446.88 238.73 455.63 207.72C457.15 202.32 434.8 232.14 419.92 255.97C416.22 261.9 419.66 266.11 417.36 270.67C414.12 277.11 406.08 282.88 407.99 283.49Z" fill="#5A97DB"/>
<path d="M437.37 196.73L437.76 261.83C437.76 261.83 439.8 306.98 441.35 314.38C441.35 314.38 459.44 350.05 513.45 318.96L539.28 232.26L437.37 196.73Z" fill="#A3BDFF"/>
<path d="M440.88 272.33L426.5 245.1C426.5 245.1 439.79 295.03 441.34 302.43C441.34 302.43 459.43 338.1 513.44 307.01L507.03 291.91L440.88 272.33Z" fill="#5A97DB"/>
<path d="M540.19 244.49C542.51 243.12 543.84 244.1 543.84 244.1C544.49 230.35 550.2 211.85 538.03 201.08C534.42 197.89 490.28 178.76 463.99 173.81C451.25 171.41 443.56 168.83 439.32 179.87C436.84 186.33 430.67 208.16 430.68 208.17C431.34 233.45 440.66 200.45 443.58 214.46C443.49 214.12 443.37 213.78 443.3 213.44C443.3 213.44 448.29 237.1 452.09 255.42C454.45 266.85 456.14 275.12 456.33 276.27C456.34 276.32 456.35 276.4 456.35 276.41L514.13 287.86L524.53 270.79L540.19 244.49Z" fill="#95C1F5"/>
<path d="M472.66 176.22C472.66 176.22 454.33 195.14 470.23 208.56C486.12 221.97 514.78 190.01 514.78 190.01C500.57 181.11 485.32 177.06 472.66 176.22Z" fill="#FFB49E"/>
<path d="M478.51 215.08C476.73 215.08 474.96 214.83 473.24 214.28C465.19 211.7 460.28 207.36 458.65 201.39C455.21 188.81 468.2 174.01 468.75 173.38C469.68 172.33 471.29 172.23 472.34 173.17C473.39 174.1 473.48 175.71 472.55 176.76C472.43 176.89 460.83 190.13 463.56 200.05C464.71 204.25 468.49 207.41 474.8 209.43C487.47 213.49 506.02 194.38 512.1 186.67C512.97 185.57 514.57 185.38 515.67 186.25C516.77 187.12 516.96 188.72 516.09 189.82C515.21 190.94 495.97 215.07 478.51 215.08Z" fill="#2C4482"/>
<path d="M479.74 183.13L470.41 135.57L499.18 144.59L508.23 186.79C508.23 186.8 487.08 207.38 479.74 183.13Z" fill="#FFB49E"/>
<path d="M494.445 157.026C512.504 152.762 523.687 134.665 519.423 116.605C515.159 98.5459 497.062 87.3628 479.002 91.6271C460.943 95.8915 449.76 113.988 454.024 132.048C458.288 150.107 476.385 161.291 494.445 157.026Z" fill="#FFB49E"/>
<path d="M453.19 123.48C453.19 123.48 454 137.07 452.35 150.87C451.51 157.9 452.14 175.14 468.49 179.21C470.45 179.7 472.59 179.86 474.91 179.61C497.61 177.21 507.16 156.85 505.02 134.14C502.87 111.42 453.19 123.48 453.19 123.48Z" fill="#FFB49E"/>
<path d="M472.62 179.21C456.27 175.14 455.64 157.9 456.48 150.87C458.14 137.07 457.32 123.48 457.32 123.48C457.32 123.48 468.97 120.65 481.23 120.32C467.48 119.92 452.79 123.48 452.79 123.48C452.79 123.48 453.6 137.07 451.95 150.87C451.11 157.9 451.74 175.14 468.09 179.21C470.05 179.7 472.19 179.86 474.51 179.61C474.58 179.6 474.66 179.59 474.73 179.58C474.02 179.49 473.31 179.38 472.62 179.21Z" fill="#FFCCBD"/>
<path d="M570.17 197.66C579.08 168.61 524.17 165.2 526.35 122.38C527.64 96.9801 512.49 99.8201 507.59 92.0801C517.39 94.8001 536.21 103.81 535.64 132.79C535.13 158.84 581.81 172.71 575.11 194.57C568.96 214.64 592.11 237.55 570.97 247.45C568.56 233.58 565.45 213.08 570.17 197.66Z" fill="#3D5CAD"/>
<path d="M426.5 257.05C426.5 257.05 413.15 231.13 444.25 212.33L430.08 262.13L426.5 257.05Z" fill="#B3D1F5"/>
<path d="M449.88 202.07C449.88 202.07 425.88 220.69 426.5 245.1C427.13 269.51 442.3 274.64 442.3 274.64L449.88 202.07Z" fill="#95C1F5"/>
<path d="M491.67 245.64C454.98 246.54 440.99 225.69 440.99 225.69C440.99 225.69 447.33 243.03 464.76 245.66C482.19 248.31 491.67 245.64 491.67 245.64Z" fill="#5A97DB"/>
<path d="M508.5 238.42C505.52 243.54 505.79 263.75 501.87 272.33C498.45 279.82 497.43 285.85 489.26 284.83C480.18 283.69 468.87 274.98 455.43 271.75C434.11 266.62 434.77 267.45 426.5 257.05C426.5 257.05 425.59 275.67 446.58 277.77C468.53 279.97 480.37 293.89 507.03 291.92L499.58 323.73C506.54 321.84 506.61 322.94 513.45 318.96L548.09 244.7C525.76 227.87 508.5 238.42 508.5 238.42Z" fill="#5A97DB"/>
<path d="M433.85 312.36L432.67 303.38L438.1 301.04L434.86 296.37L440.02 288.42L446.37 306.87L433.85 312.36Z" fill="#7090E0"/>
<path d="M432.19 314.73C431.7 316.69 432.35 318.75 433.9 320.08C439.47 324.89 454.52 335.34 479.23 334.16C500.38 333.15 512.96 329.34 519.05 326.87C521.68 325.81 523.07 322.98 522.25 320.31L521.75 318.67C520.85 315.72 517.64 314.1 514.69 315.12C503.3 319.07 476.27 326.96 458.03 320.4C449.62 317.37 444.27 314.37 440.88 311.76C437.75 309.34 433.14 310.93 432.19 314.73Z" fill="#213696"/>
<path d="M542.1 538.78C529.59 531.31 516.74 524.24 503.17 518.64C486.67 511.83 465.8 506.98 450.73 519.2C438.72 528.94 437.27 543.77 437.7 557.07C438.4 578.72 438.15 620.22 438.41 641.88L486.01 640.58C485.91 631.55 485.23 604 485.3 594.98C485.38 583.68 485.83 572.35 485.25 561.06C486.18 562.02 487.12 563 487.86 563.37C506.1 572.42 524.55 578.68 541.95 588.26C597.93 637.33 652.11 582.4 652.11 582.4L681.55 521.41C681.55 521.4 584.14 519.62 542.1 538.78ZM482.76 558.91C483.08 559.06 483.43 559.32 483.8 559.64C483.26 559.65 482.77 559.6 482.76 558.91Z" fill="#1B3A91"/>
<path d="M573.42 586.66C560.91 579.19 529.86 564.51 516.29 558.91C499.79 552.1 478.94 530.69 463.88 542.91C451.87 552.65 455.41 547 455.83 560.31C456.53 581.96 469.1 619.37 469.35 641.03L486 640.58C485.9 631.55 485.22 604 485.29 594.98C485.37 583.68 485.82 572.35 485.24 561.06C486.17 562.02 487.11 563 487.85 563.37C506.09 572.42 524.54 578.68 541.94 588.26C597.92 637.33 652.1 582.4 652.1 582.4L681.54 521.41C681.55 521.4 615.46 567.51 573.42 586.66ZM482.76 558.91C483.08 559.06 483.43 559.32 483.8 559.64C483.26 559.65 482.77 559.6 482.76 558.91Z" fill="#163078"/>
<path d="M629.17 550.98C627.01 554.91 635.67 536.25 632.24 539.47C625.09 546.18 607.89 569.88 597.72 572.63C585.44 575.95 595.57 568.9 595.57 568.9C595.57 568.9 493.28 518.34 495.43 515.84C512.27 496.29 528.23 490.18 560.51 500.81C597.25 512.92 639.51 532.15 629.17 550.98Z" fill="#163078"/>
<path d="M335.31 559.89C481.577 559.89 600.15 506.903 600.15 441.54C600.15 376.177 481.577 323.19 335.31 323.19C189.043 323.19 70.4697 376.177 70.4697 441.54C70.4697 506.903 189.043 559.89 335.31 559.89Z" fill="url(#paint1_linear_112_104)"/>
<path d="M337.31 532.94C483.577 532.94 602.15 479.953 602.15 414.59C602.15 349.227 483.577 296.24 337.31 296.24C191.043 296.24 72.4697 349.227 72.4697 414.59C72.4697 479.953 191.043 532.94 337.31 532.94Z" fill="#EBF5FF"/>
<path d="M430.67 330.58C451.03 341.49 502.81 348.37 505.07 344.09C512.37 330.25 527.37 296.32 536.38 283.46C552.61 260.27 526.97 248.15 512.91 269.77C505.57 281.05 498.87 311.17 494.81 320.76C493.32 324.28 448.59 314.24 418.79 315.44C413.17 315.68 425.72 327.93 430.67 330.58Z" fill="#FFB49E"/>
<path d="M532.57 258.58C535.88 262.64 536.08 269.74 529.92 278.53C521.39 290.71 509.92 330.08 501.66 338.07C491.75 347.64 443.23 337.99 430.67 330.49C451.03 341.4 502.81 348.28 505.07 344C512.38 330.16 527.37 296.23 536.38 283.37C545.88 269.8 541.04 260.03 532.57 258.58Z" fill="#EA8A6C"/>
<path d="M389.56 385.49L473.709 360.8L541.27 421.14L457.12 445.82L389.56 385.49Z" fill="#F5FAFF"/>
<path d="M459.619 406.58C459.729 402.688 453.862 399.363 446.514 399.155C439.166 398.946 433.12 401.932 433.009 405.824C432.899 409.716 438.766 413.04 446.114 413.249C453.462 413.458 459.508 410.472 459.619 406.58Z" fill="#CEDBED"/>
<path d="M446.17 406.29L459.12 405.75C460.6 406.16 454.64 394.9 437.25 400.9L446.17 406.29Z" fill="#2A66F7"/>
<path d="M401.78 389.55L474.729 367.89C475.569 367.64 475.839 367.07 475.339 366.61C474.839 366.15 473.75 365.99 472.91 366.24L399.959 387.9C399.119 388.15 398.849 388.72 399.349 389.18C399.849 389.63 400.94 389.8 401.78 389.55Z" fill="#B3CCF2"/>
<path d="M407.38 395.53L481.83 373.43C482.26 373.3 482.39 373.01 482.14 372.78C481.88 372.55 481.33 372.46 480.91 372.59L406.46 394.69C406.03 394.82 405.9 395.11 406.15 395.34C406.4 395.57 406.96 395.66 407.38 395.53Z" fill="#B3CCF2"/>
<path d="M410.249 398.13L484.699 376.03C485.129 375.9 485.259 375.61 485.009 375.38C484.749 375.15 484.199 375.06 483.779 375.19L409.329 397.29C408.899 397.42 408.769 397.71 409.019 397.94C409.269 398.17 409.819 398.25 410.249 398.13Z" fill="#B3CCF2"/>
<path d="M456.3 439.21L530.75 417.11C531.18 416.98 531.31 416.69 531.06 416.46C530.8 416.23 530.25 416.14 529.83 416.27L455.38 438.37C454.95 438.5 454.82 438.79 455.07 439.02C455.32 439.26 455.87 439.34 456.3 439.21Z" fill="#B3CCF2"/>
<path d="M459.16 441.81L533.61 419.71C534.04 419.58 534.17 419.29 533.92 419.06C533.66 418.83 533.109 418.74 532.689 418.87L458.24 440.97C457.81 441.1 457.68 441.39 457.93 441.62C458.19 441.85 458.74 441.94 459.16 441.81Z" fill="#B3CCF2"/>
<path d="M413.109 400.72L487.559 378.62C487.989 378.49 488.119 378.2 487.869 377.97C487.609 377.74 487.059 377.65 486.639 377.78L412.189 399.88C411.759 400.01 411.629 400.3 411.879 400.53C412.129 400.76 412.689 400.85 413.109 400.72Z" fill="#B3CCF2"/>
<path d="M460.21 396.96L495.72 386.44C496.35 386.25 496.46 385.74 495.97 385.3L495.93 385.26C495.44 384.82 494.53 384.61 493.9 384.79L458.39 395.31C457.76 395.5 457.65 396.01 458.14 396.45L458.18 396.49C458.68 396.94 459.59 397.15 460.21 396.96Z" fill="#B3CCF2"/>
<path d="M462.98 400.3L499.69 389.42C499.99 389.33 500.04 389.09 499.81 388.88L499.72 388.8C499.49 388.59 499.06 388.49 498.77 388.58L462.06 399.46C461.76 399.55 461.71 399.79 461.94 400L462.03 400.08C462.26 400.29 462.69 400.39 462.98 400.3Z" fill="#B3CCF2"/>
<path d="M465.85 402.9L502.56 392.02C502.86 391.93 502.91 391.69 502.68 391.48L502.59 391.4C502.36 391.19 501.93 391.09 501.64 391.18L464.93 402.06C464.63 402.15 464.58 402.39 464.81 402.6L464.9 402.68C465.12 402.88 465.55 402.98 465.85 402.9Z" fill="#B3CCF2"/>
<path d="M468.71 405.49L505.42 394.61C505.72 394.52 505.77 394.28 505.54 394.07L505.45 393.99C505.22 393.78 504.79 393.68 504.5 393.77L467.79 404.65C467.49 404.74 467.44 404.98 467.67 405.19L467.76 405.27C467.99 405.48 468.41 405.58 468.71 405.49Z" fill="#B3CCF2"/>
<path d="M471.57 408.09L508.28 397.21C508.58 397.12 508.63 396.88 508.4 396.67L508.31 396.59C508.08 396.38 507.65 396.28 507.36 396.37L470.65 407.25C470.35 407.34 470.3 407.58 470.53 407.79L470.62 407.87C470.85 408.08 471.28 408.18 471.57 408.09Z" fill="#B3CCF2"/>
<path d="M442.479 426.49L484.439 414.03C485.249 413.79 485.509 413.24 485.029 412.8L484.969 412.74C484.489 412.3 483.439 412.14 482.629 412.38L440.669 424.84C439.859 425.08 439.599 425.63 440.079 426.07L440.139 426.13C440.619 426.57 441.669 426.73 442.479 426.49Z" fill="#B3CCF2"/>
<path d="M445.17 429.89L488.73 416.96C489.1 416.85 489.22 416.6 489 416.4L488.88 416.29C488.66 416.09 488.18 416.02 487.81 416.13L444.25 429.06C443.88 429.17 443.76 429.42 443.98 429.62L444.11 429.73C444.32 429.92 444.8 430 445.17 429.89Z" fill="#B3CCF2"/>
<path d="M448.03 432.48L491.59 419.55C491.96 419.44 492.08 419.19 491.86 418.99L491.74 418.88C491.52 418.68 491.04 418.61 490.67 418.72L447.11 431.65C446.74 431.76 446.62 432.01 446.84 432.21L446.96 432.32C447.19 432.52 447.67 432.59 448.03 432.48Z" fill="#B3CCF2"/>
<path d="M450.899 435.08L494.459 422.15C494.829 422.04 494.949 421.79 494.729 421.59L494.599 421.48C494.379 421.28 493.899 421.21 493.529 421.32L449.969 434.25C449.599 434.36 449.479 434.61 449.699 434.81L449.819 434.92C450.049 435.11 450.529 435.19 450.899 435.08Z" fill="#B3CCF2"/>
<path d="M518.449 414.59L523.05 413.24L513.349 404.57L508.75 405.92L518.449 414.59Z" fill="#2A66F7"/>
<path d="M507.29 417.86L511.89 416.51L500.18 406.05L495.58 407.4L507.29 417.86Z" fill="#2A66F7"/>
<path d="M512.799 416.25L517.399 414.9L510.509 408.75L505.919 410.1L512.799 416.25Z" fill="#2A66F7"/>
<path d="M501.629 419.52L506.229 418.17L499.339 412.02L494.739 413.37L501.629 419.52Z" fill="#2A66F7"/>
<path d="M400.52 386.81L511.74 433.33L432.76 477.63L321.54 431.11L400.52 386.81Z" fill="#CFE5FF"/>
<path d="M321.3 428.21L400.28 383.9L511.5 430.43L432.52 474.73L321.3 428.21Z" fill="white"/>
<path d="M340.06 430.65L373.39 411.95C373.74 411.75 373.73 411.46 373.36 411.31L372.8 411.08C372.43 410.92 371.83 410.96 371.48 411.16L338.15 429.86C337.79 430.06 337.81 430.35 338.18 430.5L338.74 430.73C339.11 430.89 339.7 430.85 340.06 430.65Z" fill="#BEDBFA"/>
<path d="M347.01 433.56L380.34 414.86C380.69 414.66 380.68 414.37 380.31 414.22L379.75 413.99C379.38 413.83 378.78 413.87 378.43 414.07L345.1 432.77C344.74 432.97 344.76 433.26 345.13 433.41L345.69 433.64C346.06 433.8 346.65 433.76 347.01 433.56Z" fill="#BEDBFA"/>
<path d="M354.23 436.32L421.65 398.5C422.15 398.22 422.13 397.81 421.61 397.59C421.08 397.37 420.24 397.42 419.74 397.7L352.32 435.52C351.82 435.8 351.84 436.21 352.36 436.43C352.89 436.65 353.73 436.6 354.23 436.32Z" fill="#BEDBFA"/>
<path d="M395.54 419.96L428.87 401.26C429.23 401.06 429.21 400.77 428.84 400.62L428.28 400.39C427.91 400.23 427.31 400.27 426.96 400.47L393.63 419.17C393.27 419.37 393.29 419.66 393.66 419.81L394.22 420.04C394.59 420.19 395.18 420.16 395.54 419.96Z" fill="#BEDBFA"/>
<path d="M402.489 422.87L435.819 404.17C436.169 403.97 436.159 403.68 435.789 403.53L435.229 403.3C434.859 403.14 434.259 403.18 433.909 403.38L400.579 422.08C400.219 422.28 400.239 422.57 400.609 422.72L401.169 422.95C401.539 423.1 402.139 423.06 402.489 422.87Z" fill="#BEDBFA"/>
<path d="M375.09 445.05L442.51 407.23C443.01 406.95 442.99 406.54 442.47 406.32C441.94 406.1 441.1 406.15 440.6 406.43L373.18 444.25C372.68 444.53 372.7 444.94 373.22 445.16C373.74 445.38 374.58 445.33 375.09 445.05Z" fill="#BEDBFA"/>
<path d="M416.8 462.5L484.22 424.68C484.72 424.4 484.7 423.99 484.18 423.77C483.65 423.55 482.81 423.6 482.31 423.88L414.89 461.7C414.39 461.98 414.41 462.39 414.93 462.61C415.46 462.83 416.3 462.78 416.8 462.5Z" fill="#BEDBFA"/>
<path d="M423.76 465.4L491.18 427.58C491.68 427.3 491.66 426.89 491.14 426.67C490.61 426.45 489.77 426.5 489.27 426.78L421.85 464.6C421.35 464.88 421.37 465.29 421.89 465.51C422.41 465.74 423.25 465.69 423.76 465.4Z" fill="#BEDBFA"/>
<path d="M431.209 468.52L498.629 430.7C499.129 430.42 499.109 430.01 498.589 429.79C498.059 429.57 497.219 429.62 496.719 429.9L429.299 467.72C428.799 468 428.819 468.41 429.339 468.63C429.869 468.85 430.709 468.8 431.209 468.52Z" fill="#BEDBFA"/>
<path d="M358.33 438.51L390.93 420.22L400.86 424.37L368.26 442.66L358.33 438.51ZM390.97 421.1L360.13 438.4L368.21 441.78L399.05 424.48L390.97 421.1Z" fill="#BEDBFA"/>
<path d="M458.89 433.49L459.719 433.02L427.29 419.46L426.459 419.92L458.89 433.49Z" fill="#BEDBFA"/>
<path d="M377.91 446.79L447.25 407.89L480.12 421.64L410.78 460.54L377.91 446.79ZM447.3 408.76L379.69 446.69L410.75 459.68L478.36 421.75L447.3 408.76Z" fill="#BEDBFA"/>
<path d="M382.6 448.65L451.84 409.81L461.91 414.02L392.67 452.86L382.6 448.65ZM451.88 410.67L384.37 448.54L392.62 451.99L460.13 414.12L451.88 410.67Z" fill="#BEDBFA"/>
<path d="M400.92 456.31L470.16 417.47L480.23 421.68L410.99 460.52L400.92 456.31ZM470.2 418.34L402.69 456.21L410.94 459.66L478.45 421.79L470.2 418.34Z" fill="#BEDBFA"/>
<path d="M441.67 420.72L451.74 415.07L450.48 414.54L440.41 420.19L441.67 420.72Z" fill="#BEDBFA"/>
<path d="M451.17 424.7L461.25 419.04L459.99 418.52L449.92 424.17L451.17 424.7Z" fill="#BEDBFA"/>
<path d="M460.68 428.67L470.76 423.02L469.5 422.5L459.43 428.15L460.68 428.67Z" fill="#BEDBFA"/>
<path d="M427.68 437.87L437.75 432.22L436.5 431.7L426.42 437.35L427.68 437.87Z" fill="#BEDBFA"/>
<path d="M437.19 441.85L447.26 436.2L446.01 435.67L435.93 441.33L437.19 441.85Z" fill="#BEDBFA"/>
<path d="M389.57 416.49L422.67 397.93L400.76 388.77L367.67 407.33L389.57 416.49Z" fill="#2A66F7"/>
<path d="M380.64 406.68L377.88 408.17L376.02 407.38L383.819 403.17L385.68 403.96L382.92 405.45L390.829 408.82L388.55 410.05L380.64 406.68Z" fill="white"/>
<path d="M386.65 401.65L389.38 400.18L402.29 402.65L399.88 403.95L396.94 403.29L393.87 404.95L395.57 406.27L393.26 407.52L386.65 401.65ZM392.62 403.96L394.76 402.8L393.63 402.54C392.38 402.27 390.95 401.93 389.67 401.64L389.61 401.67C390.4 402.24 391.27 402.87 391.97 403.44L392.62 403.96Z" fill="white"/>
<path d="M400.05 399L392.68 398.39L395.21 397.03L397.93 397.34C398.61 397.41 399.34 397.51 400.23 397.62L400.29 397.59C399.91 397.2 399.61 396.87 399.37 396.57L398.33 395.35L400.75 394.04L403 397.52L410.69 398.12L408.16 399.48L405.17 399.17C404.41 399.09 403.69 399 402.81 398.89L402.75 398.92C403.12 399.3 403.38 399.64 403.67 399.97L404.72 401.33L402.28 402.64L400.05 399Z" fill="white"/>
<path d="M495.58 504.67C488.07 512.9 471.83 521.77 461.25 513.5C451.4 505.8 455.66 462.7 449.56 450.3C447.17 445.45 460.24 439.43 462.91 444.13C469.25 455.28 472.67 468.29 474.51 478.59C474.69 479.57 495.68 446 496.28 445.83C497.41 445.51 541.07 454.8 495.58 504.67Z" fill="#FFB49E"/>
<path d="M561.44 289.99C560.38 285.3 560.57 280.88 559.78 279.02C558.43 275.86 556.42 277.31 556.42 277.31C554.81 280.57 555.86 285.2 557.46 289.8C559.1 294.52 560.49 299.34 561.44 304.25C562 307.17 562.92 309.99 564.17 310.01C566.44 310.06 562.54 294.87 561.44 289.99Z" fill="#3E68DE"/>
<path d="M314.27 460.36L257.25 435.22C267.3 431.14 275.02 427.79 281.43 423.86L338.37 448.9C329.24 452.72 322 456.15 314.27 460.36Z" fill="#C7DCFF"/>
<path d="M265.4 435.87L265.87 435.72C266.58 435.49 267 435.18 266.99 434.87C266.98 434.57 266.57 434.29 265.78 434.06L265.25 433.9L265.74 433.71C271.15 431.62 275.83 429.35 279.64 426.96L279.94 426.77L280.32 426.92C281.04 427.2 282.75 427.55 284.06 426.87L284.38 426.7L284.73 426.85L332.64 447.51L332.26 447.67C331.63 447.93 331.32 448.21 331.33 448.5C331.34 448.81 331.72 449.13 332.34 449.36L332.78 449.52L332.34 449.69C327.38 451.61 322.7 453.88 318.43 456.45L318.14 456.63L317.77 456.5C317.03 456.23 316.16 456.1 315.44 456.14C314.9 456.17 314.42 456.31 314.03 456.54L313.71 456.73L313.34 456.57L265.4 435.87ZM267.83 434.56C267.9 434.67 267.92 434.77 267.93 434.86C267.94 435.23 267.54 435.61 266.85 435.9L313.66 456.09C314.14 455.87 314.71 455.74 315.35 455.71C316.18 455.66 317.14 455.78 317.99 456.03C322.11 453.57 326.6 451.39 331.36 449.53C330.77 449.24 330.43 448.88 330.41 448.52C330.4 448.27 330.56 447.9 331.29 447.52L284.42 427.31C283.1 427.85 281.37 427.78 280.11 427.39C276.42 429.68 271.94 431.86 266.79 433.87C267.4 434.1 267.7 434.34 267.83 434.56Z" fill="#96B5EB"/>
<path d="M287.34 442.71C286.27 440.98 287.07 439.08 289.85 437.74C294.16 435.65 301.61 435.64 306.45 437.73C311.3 439.82 311.74 443.22 307.43 445.32C303.12 447.41 295.67 447.42 290.83 445.33C289.1 444.58 287.93 443.67 287.34 442.71ZM309.04 440.46C308.49 439.57 307.41 438.73 305.81 438.04C301.33 436.11 294.48 436.1 290.52 438.02C286.57 439.94 286.99 443.07 291.47 445C295.95 446.93 302.8 446.94 306.76 445.02C309.29 443.79 310.02 442.06 309.04 440.46Z" fill="#96B5EB"/>
<path d="M291.9 443.81L293.14 443.23C292.33 442.8 291.69 442.31 291.22 441.78L291.11 441.65L294.03 440.28L294.27 440.61C294.51 440.94 294.84 441.28 295.24 441.62C295.64 441.95 296.05 442.21 296.47 442.4C296.89 442.59 297.13 442.64 297.23 442.65C297.3 442.66 297.36 442.66 297.47 442.61C297.5 442.6 297.53 442.58 297.52 442.53C297.51 442.47 297.45 442.36 297.27 442.15C297.11 441.97 296.87 441.72 296.56 441.42C296.19 441.06 295.96 440.73 295.86 440.43C295.76 440.13 295.81 439.84 295.99 439.6C296.17 439.35 296.53 439.1 297.05 438.86C297.86 438.48 298.79 438.3 299.79 438.32C300.65 438.34 301.58 438.51 302.56 438.83L303.49 438.39L305.51 439.3L304.6 439.72C305.33 440.12 305.93 440.59 306.39 441.11L306.56 441.3L303.05 441.99L302.88 441.79C302.4 441.22 301.81 440.78 301.13 440.47C300.73 440.29 300.53 440.26 300.48 440.25C300.41 440.24 300.38 440.25 300.33 440.27C300.27 440.3 300.26 440.32 300.26 440.34C300.26 440.38 300.29 440.47 300.45 440.66C300.58 440.82 300.8 441.04 301.09 441.3C301.72 441.9 302.02 442.39 302.01 442.8C301.99 443.23 301.61 443.62 300.88 443.96C300.06 444.34 299.11 444.54 298.07 444.55C297.15 444.55 296.2 444.4 295.23 444.1L293.92 444.71L291.9 443.81ZM294.43 443.23L293.22 443.79L293.92 444.1L295.14 443.53L295.47 443.64C296.38 443.96 297.26 444.12 298.07 444.11C298.87 444.11 299.57 443.96 300.22 443.65C300.79 443.39 301.07 443.1 301.08 442.79C301.09 442.45 300.82 442.02 300.26 441.49C299.96 441.21 299.73 440.99 299.59 440.81C299.43 440.62 299.35 440.47 299.34 440.36C299.32 440.21 299.44 440.07 299.68 439.96C299.96 439.83 300.33 439.78 300.71 439.82C301.03 439.85 301.37 439.96 301.79 440.15C302.48 440.46 303.08 440.89 303.58 441.42L305.35 441.07C304.89 440.6 304.31 440.19 303.63 439.85L303.34 439.7L304.2 439.3L303.5 438.99L302.64 439.39L302.31 439.27C301.37 438.93 300.5 438.75 299.74 438.73C299 438.71 298.34 438.85 297.72 439.14C297.3 439.34 297.02 439.53 296.89 439.71C296.75 439.89 296.72 440.11 296.8 440.34C296.88 440.59 297.09 440.88 297.42 441.21C297.74 441.52 297.98 441.77 298.15 441.96C298.33 442.17 298.43 442.33 298.46 442.45C298.5 442.62 298.39 442.77 298.15 442.88C297.82 443.04 297.4 443.09 296.97 443.03C296.63 442.98 296.26 442.87 295.83 442.68C295.35 442.47 294.88 442.17 294.44 441.81C294.13 441.56 293.87 441.31 293.65 441.05L292.22 441.72C292.69 442.22 293.34 442.67 294.14 443.07L294.43 443.23Z" fill="#96B5EB"/>
<path d="M307.38 449.37C307.22 449.3 307.25 449.15 307.4 449.07C307.56 448.99 307.7 448.99 307.9 449C309.37 449.08 309.66 449.09 309.88 449.15C309.99 449.17 310.11 449.21 310.17 449.27C310.25 449.34 310.24 449.43 310.11 449.49C309.67 449.71 309.27 449.9 308.81 450.11L306.21 451.37C306.01 451.47 305.73 451.44 305.53 451.35C305.33 451.26 305.28 451.14 305.51 451.03C306.03 450.78 307.04 450.31 307.94 449.88C308.21 449.75 308.54 449.6 308.78 449.48C308.34 449.47 307.98 449.45 307.67 449.44C307.54 449.42 307.48 449.41 307.38 449.37Z" fill="#96B5EB"/>
<path d="M313.31 450.58C314.44 451.07 314.17 451.8 312.8 452.46C311.39 453.15 309.76 453.19 308.77 452.76C307.79 452.34 307.77 451.6 309.05 450.98C310.32 450.37 312.03 450.03 313.31 450.58ZM309.86 451.27C309.1 451.64 308.76 452.14 309.43 452.43C310.08 452.71 311.1 452.62 312.06 452.16C312.94 451.73 313.36 451.2 312.65 450.9C311.79 450.53 310.65 450.88 309.86 451.27Z" fill="#96B5EB"/>
<path d="M317.58 452.42C318.71 452.91 318.44 453.64 317.07 454.3C315.66 454.99 314.03 455.03 313.04 454.6C312.06 454.18 312.04 453.44 313.32 452.82C314.58 452.21 316.3 451.87 317.58 452.42ZM314.12 453.11C313.36 453.48 313.02 453.98 313.69 454.27C314.34 454.55 315.37 454.46 316.32 454C317.2 453.57 317.62 453.04 316.91 452.74C316.05 452.37 314.92 452.72 314.12 453.11Z" fill="#96B5EB"/>
<path d="M284.94 466.11L249.98 434.84C261.75 431.58 267.21 429.13 276.78 425.46L312.47 457.23C301.7 460.32 294.74 462.55 284.94 466.11Z" fill="#D9E8FF"/>
<path d="M254.04 436.36L254.57 436.25C255.37 436.09 255.96 435.8 256.16 435.49C256.35 435.18 256.16 434.85 255.6 434.54L255.22 434.33L255.79 434.19C262.12 432.58 267.91 430.71 272.99 428.63L273.39 428.47L273.64 428.66C274.11 429.02 275.42 429.55 277.08 428.97L277.49 428.83L277.71 429.02L307.5 454.94L307.05 455.06C306.31 455.26 305.83 455.52 305.65 455.82C305.45 456.14 305.58 456.5 306 456.8L306.29 457.01L305.78 457.14C299.97 458.62 294.18 460.49 288.57 462.7L288.19 462.85L287.94 462.68C287.45 462.33 286.74 462.11 286.06 462.08C285.54 462.06 285.02 462.15 284.51 462.35L284.09 462.51L283.86 462.31L254.04 436.36ZM257.14 435.25C257.13 435.37 257.08 435.48 257.02 435.57C256.78 435.95 256.16 436.3 255.34 436.53L284.45 461.86C285.04 461.69 285.64 461.61 286.25 461.63C287.04 461.66 287.84 461.88 288.44 462.22C293.84 460.11 299.4 458.31 304.99 456.86C304.65 456.51 304.58 456.1 304.8 455.74C304.96 455.48 305.35 455.12 306.27 454.81L277.12 429.45C275.55 429.87 274.03 429.63 273.14 429.11C268.24 431.1 262.7 432.89 256.66 434.44C257.05 434.74 257.16 435.02 257.14 435.25Z" fill="#96B5EB"/>
<path d="M267.62 443.97C267.89 442.15 269.94 440.33 273.36 439.2C278.66 437.45 285.28 438.05 288.11 440.53C290.94 443.01 288.93 446.44 283.62 448.19C278.32 449.94 271.7 449.34 268.87 446.86C267.86 445.97 267.47 444.97 267.62 443.97ZM288.47 443.47C288.61 442.54 288.24 441.61 287.31 440.79C284.7 438.5 278.61 437.94 273.75 439.54C268.88 441.14 267.05 444.31 269.66 446.59C272.27 448.88 278.36 449.44 283.22 447.84C286.35 446.81 288.22 445.14 288.47 443.47Z" fill="#96B5EB"/>
<path d="M270.9 445.43L272.41 444.95C272 444.45 271.77 443.91 271.73 443.34L271.72 443.2L275.28 442.07L275.26 442.42C275.24 442.77 275.29 443.14 275.41 443.5C275.53 443.86 275.72 444.15 275.95 444.37C276.19 444.59 276.36 444.66 276.45 444.68C276.51 444.7 276.56 444.7 276.69 444.66C276.73 444.65 276.76 444.63 276.79 444.58C276.82 444.52 276.85 444.4 276.84 444.18C276.83 443.98 276.79 443.72 276.73 443.39C276.66 443 276.68 442.65 276.81 442.35C276.94 442.04 277.18 441.76 277.52 441.53C277.86 441.3 278.35 441.08 278.98 440.88C279.97 440.56 280.92 440.46 281.8 440.56C282.55 440.65 283.26 440.89 283.89 441.3L285.03 440.94L286.18 442.01L285.08 442.36C285.44 442.82 285.65 443.33 285.69 443.89L285.7 444.1L282.09 444.51L282.08 444.29C282.06 443.68 281.85 443.19 281.46 442.83C281.23 442.62 281.08 442.57 281.04 442.56C280.98 442.55 280.96 442.55 280.9 442.57C280.83 442.59 280.8 442.61 280.79 442.64C280.77 442.68 280.73 442.77 280.73 442.98C280.73 443.15 280.77 443.38 280.84 443.67C280.98 444.32 280.9 444.83 280.6 445.24C280.29 445.66 279.67 446.02 278.78 446.31C277.78 446.63 276.8 446.75 275.87 446.67C275.05 446.6 274.31 446.37 273.67 445.99L272.08 446.5L270.9 445.43ZM273.54 445.06L272.07 445.53L272.47 445.9L273.96 445.43L274.17 445.57C274.76 445.96 275.42 446.19 276.15 446.25C276.86 446.31 277.59 446.22 278.38 445.97C279.07 445.75 279.52 445.49 279.75 445.18C280 444.85 280.06 444.39 279.94 443.81C279.87 443.51 279.83 443.26 279.82 443.08C279.82 442.88 279.85 442.72 279.92 442.61C280.01 442.46 280.21 442.33 280.5 442.24C280.84 442.13 281.2 442.11 281.52 442.18C281.78 442.24 282.01 442.37 282.25 442.59C282.65 442.96 282.88 443.43 282.94 444L284.76 443.79C284.68 443.29 284.46 442.83 284.09 442.43L283.93 442.26L284.98 441.93L284.58 441.56L283.53 441.89L283.32 441.75C282.72 441.33 282.08 441.08 281.42 441C280.78 440.93 280.1 441.01 279.34 441.25C278.83 441.41 278.45 441.58 278.19 441.76C277.94 441.93 277.76 442.14 277.66 442.39C277.55 442.65 277.53 442.95 277.6 443.31C277.67 443.64 277.7 443.92 277.72 444.12C277.73 444.34 277.71 444.51 277.65 444.64C277.57 444.81 277.37 444.95 277.07 445.04C276.67 445.17 276.26 445.19 275.92 445.1C275.65 445.03 275.4 444.88 275.16 444.65C274.89 444.4 274.68 444.07 274.54 443.67C274.45 443.39 274.39 443.12 274.37 442.85L272.63 443.4C272.7 443.94 272.95 444.44 273.38 444.9L273.54 445.06Z" fill="#96B5EB"/>
<path d="M283.83 454.81C283.73 454.73 283.87 454.58 284.06 454.51C284.25 454.45 284.38 454.46 284.56 454.48C285.81 454.67 286.06 454.72 286.22 454.79C286.31 454.82 286.38 454.87 286.4 454.93C286.42 455.01 286.35 455.09 286.19 455.15C285.64 455.33 285.15 455.49 284.6 455.67L281.4 456.72C281.15 456.8 280.93 456.75 280.81 456.65C280.69 456.55 280.74 456.42 281.02 456.33C281.66 456.12 282.89 455.73 283.99 455.37C284.32 455.26 284.72 455.14 285.02 455.03C284.64 454.98 284.33 454.94 284.06 454.9C283.93 454.88 283.89 454.86 283.83 454.81Z" fill="#96B5EB"/>
<path d="M288.25 456.5C288.91 457.08 288.15 457.78 286.47 458.34C284.73 458.91 283.25 458.82 282.68 458.32C282.11 457.82 282.61 457.08 284.18 456.56C285.74 456.05 287.5 455.84 288.25 456.5ZM284.69 456.91C283.76 457.22 283.1 457.69 283.49 458.03C283.87 458.36 284.84 458.36 286.02 457.97C287.1 457.61 287.85 457.12 287.44 456.76C286.93 456.32 285.67 456.59 284.69 456.91Z" fill="#96B5EB"/>
<path d="M290.74 458.68C291.4 459.26 290.64 459.96 288.96 460.52C287.22 461.09 285.75 461 285.17 460.5C284.6 460 285.1 459.26 286.67 458.74C288.23 458.23 289.99 458.03 290.74 458.68ZM287.18 459.09C286.25 459.4 285.59 459.87 285.98 460.21C286.36 460.54 287.33 460.54 288.51 460.15C289.59 459.79 290.34 459.3 289.93 458.94C289.42 458.51 288.16 458.77 287.18 459.09Z" fill="#96B5EB"/>
<path d="M272.25 420.23L243.52 433.47C242.8 433.8 241.63 433.71 240.91 433.26L225.47 423.69C224.75 423.24 224.75 422.61 225.47 422.28L254.2 409.04C254.92 408.71 256.09 408.8 256.81 409.25L272.25 418.82C272.98 419.27 272.98 419.9 272.25 420.23Z" fill="#97CBFF"/>
<path d="M263.01 413.09L231.67 427.54L227.58 425L258.93 410.56L263.01 413.09Z" fill="#1A3EA1"/>
<path d="M266.26 416.25L253.75 422.01L251.97 420.91L264.48 415.15L266.26 416.25Z" fill="white"/>
<path d="M231.49 449.5C224.21 445.29 211.47 444.71 203.02 448.19C194.57 451.67 193.62 457.91 200.9 462.11C208.18 466.32 220.92 466.9 229.37 463.42C237.81 459.94 238.76 453.71 231.49 449.5Z" fill="#CFE5FF"/>
<path d="M233.63 451.52C233.79 452.18 233.51 454.98 233.16 455.7C232.49 457.98 230.21 460.14 226.36 461.73C217.91 465.21 205.17 464.63 197.89 460.42C194.5 458.46 192.9 456.06 193.01 453.7C192.97 453.48 193.11 450.55 193.11 450.55C193.38 449.73 193.87 448.93 194.56 448.17C195.71 446.67 197.62 445.28 200.3 444.18C208.75 440.7 221.49 441.28 228.77 445.49C231.83 447.26 233.43 449.39 233.63 451.52Z" fill="#96B5EB"/>
<path d="M233.485 451.297C233.553 445.836 224.569 441.296 213.42 441.158C202.27 441.02 193.177 445.335 193.109 450.797C193.041 456.258 202.025 460.798 213.174 460.936C224.324 461.074 233.417 456.759 233.485 451.297Z" fill="#D9E8FF"/>
<path d="M224.47 446.38C219.14 443.3 209.81 442.87 203.62 445.42C197.43 447.97 196.74 452.54 202.07 455.62C207.4 458.7 216.73 459.13 222.92 456.58C229.1 454.02 229.8 449.46 224.47 446.38Z" fill="white"/>
<path d="M204.84 452.77C203.8 452.03 202.93 451 202.87 450.07L206.23 449.9C206.47 450.83 206.94 451.51 207.91 452.06C209.04 452.7 210.03 452.77 210.99 452.35C213.14 451.41 207.77 448.42 211.53 446.78C213.58 445.89 216.17 445.93 218.46 446.83L220.61 445.89L222.57 446.99L220.46 447.91C221.56 448.72 221.82 449.54 221.76 450.35L218.51 450.27C218.47 449.56 218.2 449.05 217.35 448.57C216.38 448.02 215.46 447.9 214.52 448.31C212.54 449.18 218.03 452.11 214.04 453.85C212.03 454.72 209.42 454.8 206.88 453.82L204.71 454.77L202.75 453.67L204.84 452.77Z" fill="#353559"/>
<path d="M233.83 445.62C233.99 446.28 233.71 449.08 233.36 449.8C232.69 452.08 230.41 454.24 226.56 455.83C218.11 459.31 205.37 458.73 198.09 454.52C194.7 452.56 193.1 450.16 193.21 447.8C193.17 447.58 193.31 444.65 193.31 444.65C193.58 443.83 194.07 443.03 194.76 442.27C195.91 440.77 197.82 439.38 200.5 438.28C208.95 434.8 221.69 435.38 228.97 439.59C232.03 441.35 233.63 443.48 233.83 445.62Z" fill="#96B5EB"/>
<path d="M233.682 445.393C233.75 439.932 224.766 435.392 213.617 435.254C202.467 435.116 193.374 439.431 193.306 444.893C193.238 450.354 202.222 454.894 213.372 455.032C224.521 455.17 233.614 450.855 233.682 445.393Z" fill="#D9E8FF"/>
<path d="M224.67 440.47C219.34 437.39 210.01 436.96 203.82 439.51C197.63 442.06 196.94 446.63 202.27 449.71C207.6 452.79 216.93 453.22 223.12 450.67C229.31 448.12 230 443.55 224.67 440.47Z" fill="white"/>
<path d="M205.04 446.86C204 446.12 203.13 445.09 203.07 444.16L206.43 443.99C206.67 444.92 207.14 445.6 208.11 446.15C209.24 446.79 210.23 446.86 211.19 446.44C213.34 445.5 207.97 442.51 211.73 440.87C213.78 439.98 216.37 440.02 218.66 440.92L220.81 439.98L222.77 441.08L220.66 442C221.76 442.81 222.02 443.63 221.96 444.44L218.71 444.36C218.67 443.65 218.4 443.14 217.55 442.66C216.58 442.11 215.66 441.99 214.72 442.4C212.74 443.27 218.23 446.2 214.24 447.94C212.23 448.81 209.62 448.89 207.08 447.91L204.91 448.86L202.95 447.76L205.04 446.86Z" fill="#353559"/>
<path d="M234.08 438.35C234.25 439.01 233.96 441.81 233.61 442.53C232.94 444.81 230.66 446.97 226.81 448.56C218.36 452.04 205.62 451.46 198.34 447.25C194.95 445.29 193.35 442.89 193.46 440.53C193.42 440.31 193.56 437.38 193.56 437.38C193.83 436.56 194.32 435.76 195.01 435C196.16 433.5 198.07 432.11 200.75 431.01C209.2 427.53 221.94 428.11 229.22 432.32C232.28 434.08 233.88 436.21 234.08 438.35Z" fill="#96B5EB"/>
<path d="M233.934 438.121C234.002 432.659 225.018 428.119 213.869 427.981C202.719 427.843 193.626 432.158 193.558 437.62C193.49 443.081 202.474 447.621 213.624 447.759C224.773 447.897 233.866 443.582 233.934 438.121Z" fill="#D9E8FF"/>
<path d="M224.92 433.2C219.59 430.12 210.26 429.69 204.07 432.24C197.88 434.79 197.19 439.36 202.52 442.44C207.85 445.52 217.18 445.95 223.37 443.4C229.55 440.85 230.25 436.29 224.92 433.2Z" fill="white"/>
<path d="M205.29 439.59C204.25 438.85 203.38 437.82 203.32 436.89L206.68 436.72C206.92 437.65 207.39 438.33 208.36 438.88C209.49 439.52 210.48 439.59 211.44 439.17C213.59 438.23 208.22 435.24 211.98 433.6C214.03 432.71 216.62 432.75 218.91 433.65L221.06 432.71L223.02 433.81L220.91 434.73C222.01 435.54 222.27 436.36 222.21 437.17L218.96 437.09C218.92 436.38 218.65 435.87 217.8 435.39C216.83 434.84 215.91 434.72 214.97 435.13C212.99 436 218.48 438.93 214.49 440.67C212.48 441.54 209.87 441.62 207.33 440.64L205.16 441.59L203.2 440.49L205.29 439.59Z" fill="#85BCFF"/>
<path d="M250.94 478.59C262.085 478.59 271.12 474.202 271.12 468.79C271.12 463.378 262.085 458.99 250.94 458.99C239.795 458.99 230.76 463.378 230.76 468.79C230.76 474.202 239.795 478.59 250.94 478.59Z" fill="#CFE5FF"/>
<path d="M266.09 465.05C266.23 465.71 265.83 468.48 265.45 469.19C264.69 471.45 262.32 473.59 258.41 475.16C249.82 478.61 237.1 478.03 229.99 473.87C226.68 471.93 225.17 469.55 225.37 467.21C225.34 466.99 225.6 464.09 225.6 464.09C225.91 463.28 226.42 462.49 227.15 461.73C228.36 460.24 230.33 458.87 233.05 457.78C241.64 454.33 254.36 454.91 261.47 459.07C264.46 460.83 265.97 462.94 266.09 465.05Z" fill="#96B5EB"/>
<path d="M245.75 474.33C256.895 474.33 265.93 469.942 265.93 464.53C265.93 459.118 256.895 454.73 245.75 454.73C234.605 454.73 225.57 459.118 225.57 464.53C225.57 469.942 234.605 474.33 245.75 474.33Z" fill="#D9E8FF"/>
<path d="M257.13 459.96C251.92 456.91 242.61 456.48 236.32 459.01C230.03 461.54 229.15 466.06 234.36 469.11C239.57 472.16 248.88 472.59 255.17 470.06C261.46 467.53 262.34 463.01 257.13 459.96Z" fill="white"/>
<path d="M237.24 466.29C236.22 465.56 235.4 464.54 235.38 463.62L238.75 463.45C238.95 464.37 239.39 465.04 240.34 465.59C241.45 466.22 242.43 466.3 243.41 465.88C245.6 464.95 240.35 461.99 244.17 460.37C246.25 459.49 248.84 459.53 251.1 460.41L253.29 459.48L255.2 460.57L253.05 461.48C254.12 462.28 254.35 463.09 254.25 463.9L251 463.82C250.99 463.12 250.74 462.61 249.91 462.14C248.96 461.6 248.05 461.48 247.09 461.88C245.07 462.74 250.45 465.64 246.39 467.37C244.35 468.24 241.73 468.31 239.23 467.34L237.02 468.28L235.11 467.19L237.24 466.29Z" fill="#85BCFF"/>
<path d="M198.12 371.28L215.4 362.33L199.41 356.17L180.77 365.13L198.12 371.28Z" fill="#F95738"/>
<path d="M215.4 362.33L215.67 374.35L216.19 397.3L199 405.75L198.12 371.28L215.4 362.33Z" fill="#F95738"/>
<path d="M198.12 371.28L198.96 405.76L181.42 401.75L180.59 365.13L198.12 371.28Z" fill="#F95738"/>
<path d="M176.68 391.73L193.42 383.16L176.4 377.24L159.55 385.8L176.68 391.73Z" fill="#97CBFF"/>
<path d="M177.14 418.46L193.84 409.91L193.33 383.19L176.63 391.74L177.14 418.46Z" fill="#4D7CF0"/>
<path d="M177.14 418.46L160.16 412.49L159.66 385.77L176.63 391.74L177.14 418.46Z" fill="#446DD4"/>
<path d="M154.27 413.6L171.12 405.04L154.1 399.11L137.25 407.67L154.27 413.6Z" fill="white"/>
<path d="M154.89 430.56L137.39 424.19L137.08 407.67L154.56 413.61L154.89 430.56Z" fill="#A8C4E5"/>
<path d="M154.56 430.56L154.24 413.6L171.09 405.04L171.41 422L154.56 430.56Z" fill="#DBEFFF"/>
<path d="M236.79 386.18L313.56 417.49L413.57 362.46V355.94L345.63 337.21L236.79 386.18Z" fill="#C7DCFF"/>
<path d="M236.79 386.18L204.93 311.41L207.19 307.34L314.62 262.69L342.16 333.88L236.79 386.18Z" fill="#C7DCFF"/>
<path d="M240.63 381.76L313.56 410.97L413.57 355.94L345.63 330.69L240.63 381.76Z" fill="white"/>
<path d="M240.81 382.24L207.19 307.34L317.23 255.41L346.19 330.35L240.81 382.24Z" fill="#2F4C9C"/>
<path d="M241.49 372.65L213.95 311.3L314.71 263.75L339.01 326.03L241.49 372.65Z" fill="#97CBFF"/>
<path opacity="0.71" d="M303.86 313.3L289.83 279.87L222.86 310.17L237.15 344.21L303.86 313.3Z" fill="white"/>
<path d="M247.71 338.98C247.56 338.98 247.43 338.9 247.36 338.75L233.14 306.3C233.06 306.11 233.14 305.89 233.33 305.8C233.52 305.71 233.75 305.8 233.83 305.99L248.05 338.44C248.13 338.63 248.05 338.85 247.86 338.94C247.81 338.97 247.76 338.98 247.71 338.98Z" fill="#C2E0FF"/>
<path d="M268.78 328.73C268.63 328.73 268.5 328.65 268.43 328.5L254.1 295.8C254.02 295.61 254.1 295.39 254.29 295.3C254.48 295.22 254.71 295.3 254.79 295.49L269.12 328.19C269.2 328.38 269.12 328.6 268.93 328.69C268.88 328.72 268.83 328.73 268.78 328.73Z" fill="#C2E0FF"/>
<path d="M277.74 324.6C277.59 324.6 277.46 324.52 277.39 324.37L263.31 292.24C263.23 292.05 263.31 291.83 263.5 291.74C263.69 291.66 263.92 291.74 264 291.93L278.08 324.06C278.16 324.25 278.08 324.47 277.89 324.56C277.84 324.59 277.79 324.6 277.74 324.6Z" fill="#C2E0FF"/>
<path d="M295.82 315.72C295.67 315.72 295.54 315.64 295.47 315.49L281.5 283.63C281.42 283.44 281.5 283.22 281.69 283.13C281.88 283.04 282.1 283.13 282.19 283.32L296.16 315.18C296.24 315.37 296.16 315.59 295.97 315.68C295.92 315.71 295.87 315.72 295.82 315.72Z" fill="#C2E0FF"/>
<path d="M258.07 333.28C257.92 333.28 257.79 333.2 257.72 333.05L243.39 300.35C243.31 300.16 243.39 299.94 243.58 299.85C243.77 299.76 243.99 299.85 244.08 300.04L258.41 332.74C258.49 332.93 258.41 333.15 258.22 333.24C258.17 333.27 258.12 333.28 258.07 333.28Z" fill="#C2E0FF"/>
<path d="M286.1 316.71C285.95 316.71 285.82 316.63 285.75 316.48L273.03 287.47C272.95 287.28 273.03 287.06 273.22 286.97C273.41 286.88 273.63 286.97 273.72 287.16L286.44 316.18C286.52 316.37 286.44 316.59 286.25 316.68C286.2 316.7 286.15 316.71 286.1 316.71Z" fill="#C2E0FF"/>
<path d="M225.26 318.56C225.12 318.56 224.98 318.48 224.92 318.34C224.83 318.15 224.91 317.92 225.1 317.84L290.44 287.38C290.63 287.29 290.85 287.37 290.94 287.56C291.03 287.75 290.95 287.98 290.76 288.06L225.42 318.52C225.37 318.55 225.32 318.56 225.26 318.56Z" fill="#C2E0FF"/>
<path d="M228.01 324.51C227.87 324.51 227.73 324.43 227.67 324.29C227.58 324.1 227.66 323.87 227.85 323.79L293.19 293.33C293.38 293.24 293.6 293.32 293.69 293.51C293.78 293.7 293.7 293.93 293.51 294.01L228.17 324.47C228.12 324.5 228.06 324.51 228.01 324.51Z" fill="#C2E0FF"/>
<path d="M230.76 330.47C230.62 330.47 230.48 330.39 230.42 330.25C230.33 330.06 230.41 329.83 230.6 329.75L295.94 299.29C296.13 299.2 296.35 299.28 296.44 299.47C296.53 299.66 296.45 299.89 296.26 299.97L230.92 330.43C230.86 330.46 230.81 330.47 230.76 330.47Z" fill="#C2E0FF"/>
<path d="M233.5 336.42C233.36 336.42 233.22 336.34 233.16 336.2C233.07 336.01 233.15 335.78 233.34 335.7L298.68 305.24C298.87 305.15 299.09 305.23 299.18 305.42C299.27 305.61 299.19 305.84 299 305.92L233.66 336.38C233.61 336.41 233.55 336.42 233.5 336.42Z" fill="#C2E0FF"/>
<path opacity="0.47" d="M282.88 307.37L266.24 315.01L261.33 303.55L277.97 295.92L282.88 307.37Z" fill="#BADDFF"/>
<path d="M283.11 304.77L266.47 312.41L261.56 300.96L278.2 293.32L283.11 304.77Z" fill="white"/>
<path d="M278.44 299.31L266.02 304.94L265.19 302.98L277.62 297.35L278.44 299.31Z" fill="#BADDFF"/>
<path d="M276.61 301.44L266.51 306.07L267.47 308.37L277.58 303.74L276.61 301.44Z" fill="#BADDFF"/>
<path opacity="0.61" d="M232.93 334.56C232.93 334.56 235.73 328.58 239.69 330.96C243.66 333.34 244.32 332.2 246.37 329.33C248.42 326.46 243.71 315.61 248.33 314.09C252.95 312.57 257.3 324.05 259.73 323.04C262.17 322.03 258.73 317.94 261.94 316.68C266.51 314.89 270.32 323.19 271.98 320.75C273.65 318.31 273.28 315.11 276.87 313.91C279.91 312.89 281.82 317.74 284.97 316.34C295.77 311.53 281.15 299.2 293.28 288.53L303.91 313.12L237.1 344.21L232.93 334.56Z" fill="white"/>
<path d="M236.97 336.4C236.89 336.4 236.81 336.38 236.73 336.35C236.45 336.22 236.32 335.88 236.46 335.6C236.53 335.46 238.13 332.09 240.75 331.29C241.85 330.95 242.95 331.11 244.03 331.76C247.45 333.81 247.9 333.17 249.79 330.51L249.95 330.29C250.67 329.28 250.36 326.72 250.06 324.25C249.58 320.33 249.04 315.88 252.2 314.84C255.24 313.85 257.99 317.5 260.2 320.44C261.35 321.97 262.92 324.07 263.56 323.81C264.23 323.53 264.23 322.95 264.06 321.59C263.89 320.2 263.65 318.28 265.78 317.45C268.63 316.34 271.15 318.63 273 320.3C273.87 321.09 274.85 321.99 275.31 321.93C275.34 321.93 275.43 321.92 275.56 321.73C276.07 320.98 276.39 320.12 276.7 319.29C277.38 317.46 278.08 315.56 280.74 314.67C282.48 314.09 283.89 315.11 285.13 316.01C286.38 316.92 287.46 317.7 288.79 317.11C293.55 314.99 292.96 311.32 292.22 306.68C291.4 301.55 290.38 295.17 296.96 289.39C297.19 289.18 297.55 289.21 297.76 289.44C297.97 289.68 297.94 290.03 297.71 290.24C291.61 295.61 292.53 301.39 293.34 306.5C294.09 311.22 294.8 315.67 289.25 318.14C287.32 319 285.8 317.89 284.46 316.92C283.29 316.07 282.29 315.33 281.1 315.74C278.95 316.46 278.4 317.95 277.76 319.68C277.43 320.58 277.08 321.5 276.5 322.37C276.22 322.78 275.87 323.01 275.44 323.06C274.47 323.17 273.48 322.28 272.23 321.14C270.52 319.58 268.39 317.64 266.19 318.5C264.94 318.99 265 319.94 265.18 321.44C265.33 322.68 265.52 324.21 263.99 324.85C262.54 325.45 261.1 323.54 259.28 321.12C257.29 318.47 254.8 315.17 252.54 315.92C250.27 316.67 250.73 320.45 251.18 324.12C251.52 326.93 251.84 329.59 250.87 330.96L250.71 331.18C248.61 334.13 247.59 335.24 243.44 332.75C242.63 332.27 241.86 332.15 241.07 332.39C238.93 333.04 237.49 336.07 237.48 336.1C237.38 336.28 237.18 336.4 236.97 336.4Z" fill="#2A66F7"/>
<path d="M282.7 314.66C283.09 315.68 282.61 316.7 281.63 316.96C280.65 317.22 279.55 316.59 279.16 315.58C278.77 314.56 279.25 313.54 280.23 313.28C281.21 313.02 282.32 313.64 282.7 314.66Z" fill="#F95738"/>
<path opacity="0.71" d="M324.75 303.08L310.93 270.66L292.37 279.25L306.19 311.68L324.75 303.08Z" fill="white"/>
<path d="M319.5 295.45L307.13 301.05L306.32 299.14L318.68 293.54L319.5 295.45Z" fill="#BADDFF"/>
<path d="M317.68 297.54L307.62 302.15L308.57 304.4L318.63 299.79L317.68 297.54Z" fill="#BADDFF"/>
<path d="M303.07 277.16C305.64 275.88 308.57 276.15 310.96 277.6L309.6 280.16C308.01 279.22 306.07 279.05 304.36 279.9C302.03 281.06 300.87 283.74 301.36 286.38L298.61 286.93C297.83 282.96 299.56 278.9 303.07 277.16Z" fill="#5986FF"/>
<path d="M303.07 277.16C305.64 275.88 308.57 276.15 310.96 277.6L309.6 280.16C308.01 279.22 306.07 279.05 304.36 279.9C302.03 281.06 300.87 283.74 301.36 286.38L298.61 286.93C297.83 282.96 299.56 278.9 303.07 277.16Z" fill="#5986FF"/>
<path d="M315.29 288.14L312.54 287.32C312.89 285.93 312.77 284.37 312.09 282.94C311.48 281.64 310.5 280.65 309.37 280.04L310.47 277.33C312.19 278.23 313.67 279.73 314.6 281.69C315.6 283.8 315.79 286.08 315.29 288.14Z" fill="#F95738"/>
<path d="M310.47 277.32L309.38 280.03L310.47 277.32Z" fill="#29479C"/>
<path d="M315.29 288.14L312.54 287.32H312.53C312.13 288.91 311.12 290.3 309.61 291.04C306.79 292.44 303.33 291.08 301.87 288.01C301.62 287.48 301.45 286.93 301.35 286.39L298.6 286.96C298.76 287.74 299.01 288.51 299.36 289.26C301.53 293.85 306.69 295.87 310.9 293.79C313.19 292.64 314.71 290.55 315.29 288.14Z" fill="#29479C"/>
<path opacity="0.71" d="M334.22 324.87L326.29 306.25L307.67 314.65L315.6 333.27L334.22 324.87Z" fill="white"/>
<path opacity="0.71" d="M312.47 334.29L304.78 315.61L238.42 346.89L246.79 366.8L258.04 361.3L258.07 361.38L312.47 334.29Z" fill="white"/>
<path d="M254.037 357.795C256.973 357.671 259.23 354.663 259.078 351.076C258.926 347.49 256.423 344.683 253.488 344.807C250.552 344.931 248.295 347.94 248.447 351.526C248.599 355.113 251.102 357.92 254.037 357.795Z" fill="#F95738"/>
<path d="M296.27 327.42L261.39 344.98C260.83 345.26 260.11 344.89 259.79 344.14C259.47 343.4 259.67 342.56 260.23 342.28L295.11 324.72C295.67 324.44 296.39 324.81 296.71 325.55C297.04 326.29 296.84 327.13 296.27 327.42Z" fill="#BADDFF"/>
<path d="M281.11 341.9L263.81 350.61C263.25 350.89 262.53 350.52 262.21 349.77C261.89 349.03 262.09 348.19 262.65 347.91L279.95 339.2C280.51 338.92 281.23 339.29 281.55 340.04C281.87 340.78 281.67 341.62 281.11 341.9Z" fill="#BADDFF"/>
<path d="M254.55 354.77C254.44 354.77 254.33 354.75 254.22 354.7L250.62 352.98C250.24 352.8 250.08 352.35 250.26 351.97C250.44 351.59 250.89 351.43 251.27 351.61L253.88 352.86L254.34 347.49C254.38 347.07 254.74 346.77 255.16 346.8C255.58 346.84 255.89 347.2 255.85 347.62L255.29 354.08C255.27 354.33 255.13 354.55 254.91 354.67C254.81 354.74 254.68 354.77 254.55 354.77Z" fill="white"/>
<path d="M344.66 341.82C344.89 341.9 345.25 341.88 345.48 341.77L351.7 338.62C351.92 338.51 351.92 338.35 351.7 338.26L345.42 335.92C345.19 335.83 344.83 335.86 344.6 335.97L338.38 339.12C338.16 339.23 338.16 339.39 338.39 339.48L344.66 341.82Z" fill="#C7DCFF"/>
<path d="M340.42 351.56C340.65 351.65 341.01 351.62 341.24 351.51L347.46 348.36C347.68 348.25 347.68 348.09 347.45 348L341.17 345.66C340.95 345.58 340.58 345.6 340.36 345.71L334.14 348.86C333.91 348.97 333.92 349.14 334.14 349.22L340.42 351.56Z" fill="#C7DCFF"/>
<path d="M347.05 355.82C347.28 355.9 347.64 355.88 347.87 355.77L354.09 352.62C354.31 352.51 354.31 352.35 354.09 352.26L347.8 349.92C347.58 349.84 347.21 349.86 346.99 349.97L340.77 353.12C340.55 353.23 340.55 353.39 340.77 353.48L347.05 355.82Z" fill="#C7DCFF"/>
<path d="M359.89 356.92C360.11 357 360.48 356.98 360.7 356.87L366.92 353.72C367.14 353.61 367.14 353.45 366.91 353.36L360.63 351.02C360.4 350.94 360.03 350.96 359.81 351.07L353.59 354.22C353.37 354.33 353.37 354.49 353.6 354.58L359.89 356.92Z" fill="#C7DCFF"/>
<path d="M380.36 355.13C380.59 355.21 380.95 355.19 381.18 355.08L387.4 351.93C387.62 351.82 387.62 351.66 387.4 351.57L380.02 348.82C379.8 348.74 379.43 348.76 379.2 348.87L372.98 352.02C372.76 352.13 372.76 352.3 372.98 352.38L380.36 355.13Z" fill="#C7DCFF"/>
<path d="M369.64 360.56C369.87 360.64 370.29 360.59 370.58 360.44L378.73 356.32C379.02 356.17 379.08 355.98 378.85 355.9L371.47 353.15C371.25 353.07 370.82 353.12 370.53 353.27L362.38 357.39C362.08 357.54 362.03 357.73 362.26 357.81L369.64 360.56Z" fill="#C7DCFF"/>
<path d="M316.13 387.68C316.32 387.75 316.65 387.72 316.88 387.6L323.09 384.46C323.32 384.35 323.35 384.2 323.16 384.12L320.43 383.1C320.24 383.03 319.9 383.07 319.68 383.18L313.47 386.32C313.25 386.43 313.22 386.58 313.41 386.65L316.13 387.68Z" fill="#C7DCFF"/>
<path d="M307.88 392C308.07 392.07 308.4 392.04 308.63 391.92L314.84 388.78C315.07 388.67 315.1 388.52 314.91 388.44L312.18 387.42C311.99 387.35 311.65 387.39 311.43 387.5L305.22 390.64C305 390.75 304.97 390.9 305.16 390.97L307.88 392Z" fill="#C7DCFF"/>
<path d="M299.02 396.35C299.2 396.42 299.53 396.38 299.76 396.27L305.98 393.13C306.2 393.02 306.24 392.87 306.06 392.8L303.43 391.82C303.25 391.75 302.91 391.79 302.69 391.9L296.47 395.04C296.25 395.15 296.21 395.3 296.39 395.37L299.02 396.35Z" fill="#C7DCFF"/>
<path d="M302.74 390.13C302.92 390.2 303.25 390.16 303.48 390.05L309.7 386.91C309.92 386.8 309.96 386.65 309.78 386.58L307.15 385.6C306.97 385.53 306.63 385.57 306.41 385.68L300.19 388.82C299.97 388.93 299.93 389.08 300.11 389.15L302.74 390.13Z" fill="#C7DCFF"/>
<path d="M326.86 382.19C327.09 382.27 327.46 382.25 327.68 382.14L368.15 361.67C368.37 361.56 368.37 361.4 368.15 361.31L360.77 358.56C360.55 358.48 360.17 358.5 359.95 358.61L319.48 379.08C319.26 379.19 319.26 379.36 319.48 379.44L326.86 382.19Z" fill="#C7DCFF"/>
<path d="M370.34 359.16C370.35 359.17 370.39 359.16 370.41 359.15L375.16 356.74C375.19 356.73 375.2 356.71 375.18 356.71L374.72 356.54C374.71 356.53 374.67 356.54 374.65 356.55L369.9 358.96C369.87 358.97 369.86 358.99 369.88 358.99L370.34 359.16Z" fill="#C7DCFF"/>
<path d="M382.29 352.5C382.3 352.51 382.32 352.5 382.34 352.5L384.36 351.48C384.37 351.47 384.37 351.47 384.35 351.46L383.89 351.29C383.88 351.28 383.86 351.29 383.84 351.29L381.82 352.31C381.81 352.32 381.81 352.32 381.83 352.33L382.29 352.5Z" fill="#C7DCFF"/>
<path d="M351.37 361.23C351.59 361.31 351.96 361.29 352.19 361.18L358.41 358.03C358.63 357.92 358.63 357.75 358.41 357.67L352.13 355.33C351.9 355.25 351.53 355.27 351.31 355.38L345.09 358.53C344.86 358.64 344.87 358.81 345.09 358.89L351.37 361.23Z" fill="#C7DCFF"/>
<path d="M342.81 365.56C343.03 365.64 343.4 365.62 343.62 365.51L349.84 362.36C350.06 362.25 350.06 362.08 349.84 362L343.56 359.66C343.33 359.58 342.96 359.6 342.74 359.71L336.52 362.86C336.3 362.97 336.3 363.13 336.53 363.22L342.81 365.56Z" fill="#C7DCFF"/>
<path d="M334.24 369.9C334.46 369.98 334.83 369.96 335.05 369.85L341.27 366.7C341.49 366.59 341.49 366.43 341.26 366.34L334.98 364C334.75 363.92 334.39 363.94 334.16 364.05L327.94 367.2C327.72 367.31 327.72 367.47 327.95 367.56L334.24 369.9Z" fill="#C7DCFF"/>
<path d="M325.68 374.23C325.9 374.31 326.27 374.29 326.5 374.18L332.72 371.03C332.94 370.92 332.94 370.75 332.72 370.67L326.44 368.33C326.21 368.25 325.85 368.27 325.62 368.38L319.4 371.53C319.18 371.64 319.18 371.8 319.41 371.89L325.68 374.23Z" fill="#C7DCFF"/>
<path d="M317.11 378.56C317.33 378.64 317.7 378.62 317.93 378.51L324.15 375.36C324.37 375.25 324.37 375.09 324.14 375L317.86 372.66C317.63 372.58 317.27 372.6 317.04 372.71L310.82 375.86C310.6 375.97 310.6 376.14 310.82 376.22L317.11 378.56Z" fill="#C7DCFF"/>
<path d="M308.55 382.89C308.77 382.97 309.14 382.95 309.37 382.84L315.59 379.69C315.81 379.58 315.81 379.41 315.59 379.33L309.31 376.99C309.08 376.91 308.71 376.93 308.49 377.04L302.27 380.19C302.05 380.3 302.05 380.47 302.28 380.55L308.55 382.89Z" fill="#C7DCFF"/>
<path d="M289.26 392.65C289.48 392.73 289.85 392.71 290.08 392.6L307.02 384.03C307.24 383.92 307.24 383.76 307.02 383.67L300.74 381.33C300.51 381.25 300.15 381.27 299.92 381.38L282.98 389.95C282.76 390.06 282.76 390.23 282.99 390.31L289.26 392.65Z" fill="#C7DCFF"/>
<path d="M338.53 360.12C338.76 360.2 339.12 360.18 339.34 360.07L345.56 356.92C345.78 356.81 345.78 356.65 345.56 356.56L339.27 354.22C339.05 354.14 338.68 354.16 338.46 354.27L332.24 357.42C332.02 357.53 332.02 357.69 332.24 357.78L338.53 360.12Z" fill="#C7DCFF"/>
<path d="M329.96 364.46C330.19 364.54 330.55 364.52 330.77 364.41L336.99 361.26C337.21 361.15 337.21 360.99 336.98 360.9L330.69 358.56C330.47 358.48 330.1 358.5 329.88 358.61L323.66 361.76C323.44 361.87 323.44 362.03 323.66 362.12L329.96 364.46Z" fill="#C7DCFF"/>
<path d="M321.4 368.79C321.63 368.88 321.99 368.85 322.22 368.74L328.44 365.59C328.66 365.48 328.67 365.32 328.44 365.23L322.15 362.89C321.93 362.81 321.55 362.83 321.33 362.94L315.11 366.09C314.89 366.2 314.89 366.36 315.11 366.45L321.4 368.79Z" fill="#C7DCFF"/>
<path d="M312.83 373.12C313.06 373.2 313.42 373.18 313.64 373.07L319.86 369.92C320.08 369.81 320.08 369.65 319.86 369.56L313.57 367.22C313.35 367.14 312.98 367.16 312.76 367.27L306.54 370.42C306.32 370.53 306.32 370.69 306.54 370.78L312.83 373.12Z" fill="#C7DCFF"/>
<path d="M304.27 377.45C304.5 377.53 304.86 377.51 305.08 377.4L311.3 374.25C311.52 374.14 311.52 373.98 311.3 373.89L305.01 371.55C304.79 371.47 304.42 371.49 304.2 371.6L297.98 374.75C297.76 374.86 297.76 375.02 297.98 375.11L304.27 377.45Z" fill="#C7DCFF"/>
<path d="M295.7 381.78C295.93 381.87 296.29 381.84 296.51 381.73L302.73 378.59C302.96 378.48 302.96 378.32 302.73 378.23L296.44 375.89C296.22 375.81 295.85 375.83 295.62 375.94L289.4 379.08C289.18 379.19 289.18 379.35 289.4 379.44L295.7 381.78Z" fill="#C7DCFF"/>
<path d="M287.14 386.11C287.37 386.19 287.73 386.17 287.95 386.06L294.17 382.91C294.39 382.8 294.39 382.64 294.16 382.55L287.87 380.21C287.65 380.13 287.28 380.15 287.06 380.26L280.84 383.41C280.62 383.52 280.62 383.68 280.84 383.77L287.14 386.11Z" fill="#C7DCFF"/>
<path d="M331.9 355.87C332.13 355.96 332.5 355.93 332.72 355.82L338.94 352.67C339.16 352.56 339.16 352.4 338.93 352.31L332.65 349.97C332.43 349.89 332.06 349.91 331.84 350.02L325.62 353.17C325.4 353.28 325.4 353.44 325.62 353.53L331.9 355.87Z" fill="#C7DCFF"/>
<path d="M323.34 360.2C323.57 360.29 323.94 360.26 324.16 360.15L330.38 357C330.6 356.89 330.6 356.73 330.37 356.64L324.09 354.3C323.87 354.22 323.5 354.24 323.28 354.35L317.06 357.5C316.84 357.61 316.84 357.77 317.06 357.86L323.34 360.2Z" fill="#C7DCFF"/>
<path d="M314.77 364.54C315 364.63 315.37 364.6 315.59 364.49L321.81 361.34C322.03 361.23 322.03 361.07 321.8 360.98L315.52 358.64C315.3 358.56 314.93 358.58 314.71 358.69L308.49 361.84C308.26 361.95 308.27 362.12 308.49 362.2L314.77 364.54Z" fill="#C7DCFF"/>
<path d="M306.21 368.87C306.44 368.96 306.8 368.93 307.03 368.82L313.25 365.67C313.47 365.56 313.47 365.4 313.24 365.31L306.96 362.97C306.74 362.89 306.37 362.91 306.15 363.02L299.93 366.17C299.71 366.28 299.71 366.44 299.93 366.53L306.21 368.87Z" fill="#C7DCFF"/>
<path d="M297.64 373.2C297.87 373.29 298.24 373.26 298.46 373.15L304.68 370C304.9 369.89 304.9 369.73 304.67 369.64L298.39 367.3C298.17 367.22 297.8 367.24 297.58 367.35L291.36 370.5C291.14 370.61 291.14 370.77 291.37 370.86L297.64 373.2Z" fill="#C7DCFF"/>
<path d="M289.08 377.53C289.31 377.62 289.68 377.59 289.9 377.48L296.12 374.33C296.34 374.22 296.34 374.06 296.11 373.97L289.83 371.63C289.61 371.55 289.24 371.57 289.02 371.68L282.8 374.83C282.57 374.94 282.58 375.11 282.8 375.19L289.08 377.53Z" fill="#C7DCFF"/>
<path d="M280.52 381.86C280.75 381.95 281.12 381.92 281.34 381.81L287.56 378.66C287.78 378.55 287.78 378.39 287.55 378.3L281.27 375.96C281.05 375.88 280.68 375.9 280.46 376.01L274.24 379.16C274.02 379.27 274.02 379.43 274.24 379.52L280.52 381.86Z" fill="#C7DCFF"/>
<path d="M348.99 347.23C349.22 347.32 349.59 347.29 349.81 347.18L360.35 341.85C360.57 341.74 360.57 341.58 360.34 341.49L354.06 339.15C353.84 339.07 353.47 339.09 353.24 339.2L342.7 344.53C342.48 344.64 342.48 344.8 342.7 344.89L348.99 347.23Z" fill="#C7DCFF"/>
<path d="M263.3 382.96C263.53 383.04 263.89 383.02 264.12 382.91L274.67 377.58C274.89 377.47 274.89 377.31 274.66 377.22L268.38 374.88C268.15 374.8 267.78 374.82 267.56 374.93L257.01 380.26C256.79 380.37 256.79 380.53 257.02 380.62L263.3 382.96Z" fill="#C7DCFF"/>
<path d="M355.61 351.48C355.84 351.56 356.2 351.54 356.43 351.43L369 345.07C369.22 344.96 369.23 344.8 369 344.71L362.71 342.37C362.49 342.29 362.12 342.31 361.9 342.42L349.33 348.78C349.1 348.89 349.11 349.05 349.33 349.14L355.61 351.48Z" fill="#C7DCFF"/>
<path d="M368.46 352.59C368.68 352.67 369.05 352.65 369.28 352.54L377.66 348.3C377.88 348.19 377.88 348.02 377.66 347.94L371.38 345.6C371.15 345.52 370.79 345.54 370.56 345.65L362.18 349.89C361.96 350 361.96 350.17 362.19 350.25L368.46 352.59Z" fill="#C7DCFF"/>
<path d="M336.1 346.15C336.33 346.23 336.69 346.21 336.92 346.1L343.13 342.96C343.35 342.85 343.35 342.69 343.13 342.6L336.85 340.26C336.62 340.18 336.26 340.2 336.03 340.31L329.82 343.45C329.59 343.56 329.6 343.72 329.82 343.81L336.1 346.15Z" fill="#C7DCFF"/>
<path d="M327.57 350.46C327.8 350.54 328.16 350.52 328.39 350.41L334.61 347.26C334.83 347.15 334.83 346.99 334.6 346.9L328.32 344.56C328.09 344.47 327.72 344.5 327.5 344.61L321.28 347.76C321.06 347.87 321.06 348.03 321.28 348.12L327.57 350.46Z" fill="#C7DCFF"/>
<path d="M319.01 354.79C319.24 354.87 319.6 354.85 319.83 354.74L326.05 351.59C326.27 351.48 326.27 351.32 326.04 351.23L319.76 348.89C319.53 348.81 319.17 348.83 318.94 348.94L312.72 352.09C312.5 352.2 312.5 352.36 312.73 352.45L319.01 354.79Z" fill="#C7DCFF"/>
<path d="M310.45 359.12C310.68 359.2 311.04 359.18 311.27 359.07L317.49 355.93C317.72 355.82 317.71 355.66 317.49 355.57L311.21 353.23C310.98 353.15 310.62 353.17 310.39 353.28L304.17 356.42C303.95 356.53 303.95 356.69 304.17 356.78L310.45 359.12Z" fill="#C7DCFF"/>
<path d="M301.89 363.45C302.12 363.53 302.48 363.51 302.71 363.4L308.93 360.25C309.16 360.14 309.15 359.98 308.93 359.89L302.65 357.55C302.42 357.46 302.06 357.49 301.83 357.6L295.61 360.75C295.38 360.86 295.39 361.02 295.62 361.11L301.89 363.45Z" fill="#C7DCFF"/>
<path d="M293.32 367.78C293.55 367.86 293.91 367.84 294.14 367.73L300.36 364.58C300.58 364.47 300.58 364.31 300.35 364.22L294.07 361.88C293.84 361.79 293.48 361.82 293.25 361.93L287.03 365.08C286.81 365.19 286.81 365.35 287.04 365.44L293.32 367.78Z" fill="#C7DCFF"/>
<path d="M284.75 372.11C284.98 372.19 285.34 372.17 285.57 372.06L291.79 368.91C292.02 368.8 292.01 368.63 291.79 368.55L285.51 366.21C285.28 366.12 284.92 366.15 284.69 366.26L278.47 369.41C278.25 369.52 278.25 369.68 278.48 369.77L284.75 372.11Z" fill="#C7DCFF"/>
<path d="M276.19 376.44C276.42 376.52 276.78 376.5 277 376.39L283.22 373.24C283.44 373.13 283.44 372.97 283.21 372.88L276.93 370.54C276.7 370.46 276.34 370.48 276.12 370.59L269.9 373.74C269.68 373.85 269.68 374.01 269.91 374.1L276.19 376.44Z" fill="#C7DCFF"/>
<path d="M271.89 380.34C271.99 380.29 272.13 380.25 272.3 380.24C272.46 380.23 272.6 380.25 272.71 380.29L278.99 382.63C279.1 382.67 279.16 382.73 279.17 382.8C279.17 382.87 279.11 382.94 279.01 382.99L277.39 383.81L285.63 386.88C285.74 386.92 285.8 386.98 285.8 387.05C285.8 387.12 285.74 387.19 285.63 387.24L281.44 389.36C281.33 389.41 281.19 389.45 281.03 389.46C280.87 389.47 280.73 389.45 280.62 389.41L265.68 383.84C265.57 383.8 265.51 383.74 265.51 383.67C265.51 383.6 265.57 383.53 265.68 383.48L271.89 380.34Z" fill="#C7DCFF"/>
<path d="M368.95 350.76C368.96 350.77 369 350.76 369.02 350.75L373.77 348.35C373.8 348.34 373.81 348.32 373.79 348.32L373.33 348.15C373.32 348.14 373.28 348.15 373.26 348.16L368.51 350.57C368.48 350.58 368.47 350.6 368.49 350.6L368.95 350.76Z" fill="#C7DCFF"/>
<path d="M351.27 387.53L374.09 375.51C374.35 375.37 374.25 375.13 373.86 374.97L359.76 369.35C359.37 369.19 358.83 369.18 358.56 369.32L335.74 381.34C335.48 381.48 335.58 381.72 335.97 381.88L350.07 387.5C350.46 387.66 351 387.67 351.27 387.53Z" fill="#C7DCFF"/>
<path d="M503.74 389.67L574.27 384.17L568.11 415.15L496.26 405.46L503.74 389.67Z" fill="#FFB49E"/>
<path d="M587.34 608.96L475.47 550.97C457.35 541.58 443.35 545.99 444.35 560.77L445.31 574.97C446.31 589.75 461.96 609.53 480.07 618.92L491.97 625.09C558.48 649.23 583.59 637.52 607.89 625.09C602.07 618.64 594.92 612.89 587.34 608.96Z" fill="#4975E3"/>
<path d="M467.27 399.1C467.27 399.1 450.96 408.08 450.19 401.51C450 399.86 452.95 397.96 456.99 396.15C455.35 395.97 454.03 395.23 453.36 393.65C453.36 393.65 455.72 392.33 458.74 390.95C457.94 390.54 457.31 389.9 456.91 388.95C456.91 388.95 464.47 384.72 469.86 383.5C471.69 382.98 476.65 383.77 482.27 384.06C488.05 384.36 489.74 384.53 504.34 389.52C504.34 389.52 503.99 390.01 503.44 390.71C506.08 391.38 508.22 393.48 508.74 396.09L508.8 396.39C509.7 400.89 507.18 405.11 502.77 406.51L493.28 409.51L477.99 408.72C477.99 408.72 470.11 410.75 468.69 407.6C467.1 404.09 476.94 403.84 476.94 403.84L484.1 403.45C486.08 403.07 486.98 402.94 486.78 401.04C486.66 399.91 485.01 399.42 484.91 399.23C484.66 398.74 467.27 399.1 467.27 399.1Z" fill="#FFB49E"/>
<path d="M457.14 396.46L456.85 395.84L466.15 391.58L466.25 391.59L484.86 393.58L484.78 394.26L466.27 392.29L457.14 396.46Z" fill="#EA986C"/>
<path d="M459 391.17L458.46 390.74C458.92 390.14 465.75 386.93 467.84 385.96L467.93 385.92L468.03 385.93L486.64 387.9L486.57 388.59L468.06 386.63C464.73 388.17 459.42 390.74 459 391.17Z" fill="#EA986C"/>
<path d="M676.01 392.47C676.02 390.81 675.94 389.09 675.78 387.32C674.64 374.51 675.45 369.23 666.09 360.03C650.09 344.31 632.11 341.66 611.09 348.36C611.09 348.36 606.14 371.69 561.56 375.46C553.74 379.94 545.11 383.74 535.43 387.74C511.89 397.47 514.72 426.54 523.01 440.85C532.31 499.39 535.76 473.28 530.12 521.9C528.15 538.85 532.93 555.93 543.52 569.31C608.07 650.9 648.5 599.3 682.69 538.24C690.94 535.58 682.98 466.54 676.01 392.47Z" fill="#3365DE"/>
<path d="M523.05 438.23L563.23 424.47C563.72 433.61 558.99 448.62 559.6 464.53C560.38 485.11 566.31 507.15 564.66 519.45C557.43 573.12 561.82 575.26 592.06 610.11C568.21 595.09 548.08 578.5 535.07 558.93C530.35 551.83 528.33 543.25 529.24 534.77C532.03 508.57 530.99 503.87 523.05 438.23Z" fill="#0F3CB8"/>
<path d="M573.92 486.95L525.71 596.05C525.09 597.45 524.34 599.33 523.54 601.5C518 616.5 524.74 638.47 540.72 637.93C559.39 641.42 578.95 638.32 599.23 629.99L665.23 602.91C700.25 588.54 723.12 551.88 723.12 510.13V438.63C723.12 414.63 700.31 398.01 680.79 407.79L622.78 436.84C602.19 447.16 582.65 467.2 573.92 486.95Z" fill="#4D7CF0"/>
<path d="M585.13 499.87C598.63 481.29 620.91 461.89 641.49 451.58L699.5 422.53C706.52 419.01 712.1 418.99 718.76 421.42C712.3 405.18 696.45 396.03 680.83 403.86L622.82 432.91C602.24 443.22 582.7 463.25 573.97 483.01L525.76 592.11C525.14 593.51 524.39 595.39 523.59 597.56C518.56 611.15 585.13 499.87 585.13 499.87Z" fill="#5984F0"/>
<path d="M383.35 306.42C383.33 306.48 382.9 307.79 383.96 309.06C383.97 309.07 383.97 309.08 383.98 309.09C385.9 311.34 391.15 311.84 399.59 310.59C399.89 310.61 401.02 310.87 402.58 311.25C399.79 311.89 396.82 313.48 395.11 315.43C388.35 323.16 386.83 327.99 386.77 328.19L386.69 328.46L386.84 328.7C386.9 328.79 387.43 329.6 388.69 329.65C391.16 329.74 394.53 326.79 398.7 320.91C399.82 319.33 401.73 318.4 404.38 318.13C402.74 318.59 401.32 319.46 400.35 320.61C397.33 324.22 392.66 333.06 392.46 333.44L392.27 333.79L392.5 334.11C392.56 334.19 393.11 334.9 394.29 334.87C394.7 334.86 395.14 334.76 395.6 334.58C395.51 334.7 395.46 334.76 395.46 334.76L395.07 335.28L395.59 335.67C399.44 338.52 402.69 334.47 405.06 331.52C405.37 331.14 405.67 330.77 405.96 330.42C407.09 329.07 409.06 327.62 410.88 327.99C415.92 329.01 419.56 330.11 421.12 331.11C421.5 331.35 425.09 332.68 425.59 332.92C435.04 337.38 440.52 325.69 434.51 316.97C423.73 312.62 409.13 303.87 402.3 304.61L402.2 304.58L383.47 306.03L383.35 306.42Z" fill="#FFB49E"/>
<path d="M396.46 334.18L396.04 333.83L406.27 321.65L414.56 322.46L414.51 323L406.5 322.22L396.46 334.18Z" fill="#EA986C"/>
<path d="M404.337 317.877L404.324 318.417L409.983 318.548L409.995 318.008L404.337 317.877Z" fill="#EA986C"/>
<path d="M457.12 460.69C454.18 460.4 457.31 456.05 456.51 453.58C457.73 458.05 452.08 459.68 452.08 459.68C445.05 449.21 446.96 445.19 444.9 440.07C442.63 434.44 440.41 431.81 440.41 431.81C440.41 430.83 440.13 426.13 444.75 428.19C442.7 422.84 450.18 419.01 450.18 419.01C451.97 419.52 450.67 419.43 451.01 420.13C448.3 416.99 448.41 412.85 450.18 413.4C456.51 415.37 459.72 419.18 459.72 419.18C459.72 419.18 463.44 424.5 463.97 424.69C464.19 424.77 463.83 435.99 465.1 436.01C467.24 436.05 464.56 438.46 464.96 436.54L465.28 429.66C465.28 429.66 465.39 420.24 469.36 421.47C472.92 422.58 470.77 430.27 470.77 430.27L471.92 444.82L468.71 454.13C467.22 458.46 462.52 461.2 457.45 460.7L457.12 460.69Z" fill="#FFB49E"/>
<path d="M481.07 178.14C479.25 178.61 491.31 175.23 493.06 192.22C493.59 197.37 505.14 190.19 508.23 186.8L503.07 161.1C503.08 161.1 493.06 175.06 481.07 178.14Z" fill="#EA8A6C"/>
<path d="M489.26 175.06C489.26 175.06 502.41 163.65 495.99 140.39C495.99 140.39 476.63 137.4 474.9 122.29C473.17 107.17 505.3 135.57 505.3 135.57L503.07 161.1C503.08 161.1 496.71 176.95 489.26 175.06Z" fill="#EA8A6C"/>
<path d="M474.9 114.07C478.63 137.81 518.82 136.35 513.95 156.05C513.95 156.05 527.64 125.94 521.95 111.54C516.26 97.1301 476.29 70.5001 474.9 114.07Z" fill="#5370BD"/>
<path d="M433.16 132.65C433.16 132.65 481.45 125.66 490.96 112.14C496 104.98 499.31 99.1101 501.31 95.1801C502.82 92.2101 500.93 88.1501 497.39 86.7201C485.71 82.0001 462.56 76.3001 449.82 98.4801C436.42 121.83 433.16 132.65 433.16 132.65Z" fill="#607BBF"/>
<path d="M467.08 123.16C460.67 125.8 452.8 128.53 443.38 130.96L433.17 132.64C433.17 132.64 440.58 110.86 458.98 106.28C469.25 103.73 476.68 119.2 467.08 123.16Z" fill="#6685D4"/>
<path d="M510.78 160.31C506.38 163.97 501.35 162.71 499.54 157.49C497.73 152.27 499.83 145.08 504.23 141.42C508.63 137.76 513.66 139.02 515.47 144.24C517.28 149.46 515.18 156.65 510.78 160.31Z" fill="#EA8A6C"/>
<path d="M505.4 146.41C505.4 146.41 507.65 142.34 510.22 144.48C512.79 146.62 510.97 155.68 507.81 156.02C504.65 156.36 508.85 152.94 507.13 151.12C505.4 149.3 504.43 148.87 505.4 146.41Z" fill="#D47D62"/>
<path d="M452.8 103.82C446.1 115.5 441.31 124.81 437.95 131.87C434.97 132.39 433.16 132.65 433.16 132.65C433.16 132.65 436.43 121.83 449.83 98.4801C458.51 83.3701 472.01 81.2001 483.44 82.8401C472.18 84.1401 460.89 89.7101 452.8 103.82Z" fill="#6685D4"/>
<path d="M477.85 195.16C477.41 195.04 476.97 195.32 476.89 195.76C476.69 196.93 476.76 198.85 479.67 197.9C483.59 196.63 484.42 196.99 477.85 195.16Z" fill="#EA8A6C"/>
<path d="M494.81 320.77C494.81 320.77 498.5 333.22 507.36 334L508.98 329.32L495.47 319.09L494.81 320.77Z" fill="#EA8A6C"/>
<path d="M493.06 315.45C493.06 315.45 506.12 338.96 519.05 326.87C519.05 326.87 544.99 260.9 545.54 253.62C546.66 238.56 550.14 209.74 537.27 202.01C518.18 190.55 503.14 215.81 510.3 226.44C517.46 237.07 493.06 315.45 493.06 315.45Z" fill="#95C1F5"/>
<path d="M508.81 330.04C512.06 330.8 515.56 330.13 519.05 326.87C519.05 326.87 544.99 260.9 545.54 253.62C546.66 238.56 550.14 209.74 537.27 202.01C543.84 223.57 533.19 294.16 508.81 330.04Z" fill="#5A97DB"/>
<path d="M514.78 190.01C514.78 190.01 533.98 198.26 537.7 200.83C545.34 206.11 546.02 216.91 546.02 216.91L546.55 223.56C546.55 223.56 540.13 215.35 538.67 210.01C537.05 204.11 527.62 202.85 524.79 199.23C521.96 195.61 512.15 197.04 511.08 196.73C510 196.42 514.78 190.01 514.78 190.01Z" fill="#5A97DB"/>
<path d="M528.65 322.55C529.51 332.82 532.86 340.83 540.05 344.39C550.96 349.8 574.53 341.85 584.42 339.41C610.04 333.07 610.77 297.86 611.82 271.96C612.08 265.55 576.97 248.43 566.01 250.7C542.04 255.68 529.15 258.51 530.33 306.63C530.43 310.55 528.26 317.94 528.65 322.55Z" fill="#FFB49E"/>
<path d="M617.67 362.56L600.33 321.22C596.79 312.78 585.73 308.33 575.77 311.33L572.82 312.22C562.85 315.22 552.79 324.81 556.33 333.25L573.85 369.23C577.38 377.66 621.21 371 617.67 362.56Z" fill="#FFB49E"/>
<path d="M540.05 344.39C550.96 349.8 574.53 341.85 584.42 339.41C610.04 333.07 610.77 297.86 611.82 271.96C612.08 265.55 598.23 275.23 594.64 285.83C573.25 349.13 540.05 344.39 540.05 344.39Z" fill="#EA8A6C"/>
<path d="M521.8 309.87C519.49 311.93 522.78 314.58 525.55 316.32C526.87 317.15 528.46 317.94 529.93 317.79C531.49 317.64 532.37 316.48 532.87 315.34C534.2 312.31 537.84 306.11 533.24 303.47C531.35 302.38 533.62 292.96 533.03 294.39C529.77 302.28 524.82 307.19 521.8 309.87Z" fill="#FFB49E"/>
<path d="M521.34 312.54C521.34 312.54 525.14 317.28 528.86 317.81C528.86 317.81 531.82 317.31 530.52 314.82C529.22 312.32 527.36 317.86 521.34 312.54Z" fill="#EA8A6C"/>
<path d="M533.68 272C533.68 272 532.3 276.04 531.72 280C531.72 280 543.13 284.28 555.75 283.71C555.75 283.71 540.43 277.88 533.68 272Z" fill="#EA8A6C"/>
<path d="M474.5 478.59L469.35 484.37L472.67 471.97L474.5 478.59Z" fill="#EA8A6C"/>
<path d="M590.52 335.31C590.52 335.31 601.78 363.22 602.15 362.33C602.53 361.44 612.27 350.37 612.27 350.37L605.79 334.26L590.52 335.31Z" fill="#EA8A6C"/>
<path d="M593.92 245.51C570.95 240.49 550.23 230.02 537.23 242.1C524.23 254.17 521.31 269.51 549.74 280.62C551.99 281.5 554 282.52 555.8 283.66C556.12 285.38 556.68 287.35 557.52 289.79C559.16 294.51 560.55 299.33 561.5 304.24C562.06 307.16 562.98 309.98 564.23 310C566.5 310.05 568.39 308.19 568.44 305.88L569.36 304.58C575.73 324.01 569.89 345.27 587.75 347.55C610.28 350.43 616.29 328.7 616.29 328.7C643.76 267.4 618.22 250.83 593.92 245.51Z" fill="#344982"/>
<path d="M616.31 328.71C616.31 328.71 623.68 286.79 601.15 283.91C575.18 280.6 585.4 294.56 549.75 280.62C521.32 269.5 524.24 254.17 537.24 242.1C550.24 230.03 570.96 240.49 593.93 245.51C618.22 250.83 643.76 267.4 616.31 328.71Z" fill="#3D5CAD"/>
<path d="M536.5 242.1C540.79 238.11 545.93 236.59 551.72 236.51C540.08 249.33 537.76 264.31 558.05 276.78C561.32 278.79 560.03 283.8 556.2 283.92L549.02 280.62C520.58 269.5 523.5 254.17 536.5 242.1Z" fill="#6685D4"/>
<path d="M572.06 324.59C579.273 324.59 585.12 319.638 585.12 313.53C585.12 307.422 579.273 302.47 572.06 302.47C564.847 302.47 559 307.422 559 313.53C559 319.638 564.847 324.59 572.06 324.59Z" fill="#FFB49E"/>
<path d="M571.69 312.77C571.69 312.77 574.83 313.72 574.24 315.77C573.65 317.83 572.4 318.02 572.4 318.02C572.4 318.02 574.01 320.12 576.29 318.45C578.56 316.77 580.21 313.79 577.53 310.41C575.33 307.67 571.69 312.77 571.69 312.77Z" fill="#EA8A6C"/>
<path d="M556.92 377.96C594.19 371.68 620.83 390.06 624.11 344C624.11 344 614.17 342.13 611.04 346.75C605.54 354.87 600.61 363 585.09 362.91C577.06 362.86 566.78 362.55 564.44 365.89L556.92 377.96Z" fill="white"/>
<path d="M480.13 471.04C480.13 471.04 484.46 495.08 502.46 496.59C502.46 496.59 507.49 490.96 509.88 485.89L480.13 471.04Z" fill="#EA8A6C"/>
<path d="M566.19 420.15L521.79 481.39C505.8 496.94 466.82 469.87 478.87 456.19L523.53 394.84C531.27 386.12 543.73 383.42 552.34 388.59C561.31 393.98 573.02 410.26 566.19 420.15Z" fill="#3365DE"/>
<path d="M563.23 424.48L523.29 479.33C523.29 479.33 516.39 490.32 501.87 485.08C501.87 485.08 510.3 480.93 514.74 474.17C519.18 467.41 524.6 464.98 531.16 451.83C548.93 416.2 562.7 411.02 563.23 424.48Z" fill="#0F3CB8"/>
<path d="M396.24 274.1C394.37 271.48 394.35 264.97 396.62 262.69C398.81 260.48 408.3 241.43 410.94 237.23C416.15 228.95 429.09 199.15 433.95 188.5C437.12 181.56 439.45 175.23 450.29 175.23C453.76 175.23 453.83 171.89 450.36 171.64C441.63 171 430.22 181.4 426.2 190.19C421.34 200.84 413.52 227.82 408.3 236.1C405.66 240.29 398.06 256.11 395.87 258.32C393.6 260.6 388.42 265.56 390.29 268.18C392.6 271.4 395.69 275.86 400.09 279.29C398.6 277.43 397.33 275.63 396.24 274.1Z" fill="#B3D1F5"/>
<path d="M225.26 330.97L201.06 341.32L194.49 325.55L218.7 315.2L225.26 330.97Z" fill="#2A66F7"/>
<path d="M211.01 335.85L216.33 340.58L217.33 332.46L211.01 335.85Z" fill="#2A66F7"/>
<path d="M217.14 323.18L202.37 329.81L201.47 327.58L216.24 320.95L217.14 323.18Z" fill="white"/>
<path d="M219.19 327.82L204.42 334.45L203.51 332.23L218.28 325.6L219.19 327.82Z" fill="white"/>
<path opacity="0.4" d="M320.61 468.44L360.71 452.87C361.15 452.7 361.84 452.78 362.25 453.05L365.43 455.16C365.45 455.17 365.48 455.18 365.5 455.2L397.67 476.5C398.08 476.77 398.05 477.13 397.61 477.3L357.51 492.87C357.07 493.04 356.38 492.96 355.97 492.69L352.79 490.58C352.77 490.57 352.74 490.56 352.72 490.54L320.55 469.24C320.14 468.97 320.17 468.61 320.61 468.44Z" fill="#A8C4E5"/>
<path d="M382.43 480.51L388.29 480.97L389 477.78L383.13 477.32L382.43 480.51Z" fill="#3C61C7"/>
<path d="M313.87 474.87L319.74 475.32L320.44 472.13L314.58 471.68L313.87 474.87Z" fill="#363656"/>
<path d="M351.83 447.03C352.67 446.72 353.9 447.35 353.99 448.14L354.95 455.87L349.07 457.63V457.64L313.1 474.41L311.89 464.25C311.82 463.67 311.83 463.05 312.45 462.82L351.83 447.03Z" fill="#3C61C7"/>
<path d="M347.87 496.78L387.97 481.21C388.41 481.04 388.44 480.68 388.03 480.41L355.86 459.11C355.45 458.84 354.77 458.76 354.32 458.93L314.29 472.81C313.85 472.98 313.43 473.38 313.1 474.41L346.33 496.6C346.74 496.87 347.43 496.95 347.87 496.78Z" fill="#3C61C7"/>
<path d="M314.46 463.18L319.2 461.34V461.33L353.47 448.02C354.3 447.7 355.18 448.1 355.28 448.84L356.23 455.98C356.34 456.02 356.44 456.07 356.52 456.12L388.69 477.42C389.1 477.69 389.07 478.05 388.63 478.22L348.53 493.79C348.09 493.96 347.4 493.88 346.99 493.61L314.82 472.31C314.64 472.19 314.55 472.06 314.54 471.93H314.53L313.54 464.49C313.47 463.97 313.85 463.41 314.46 463.18Z" fill="#5F86F2"/>
<path d="M354.91 463.64L359.97 461.68C360.34 461.54 360.36 461.24 360.02 461.02L356.65 458.79C356.31 458.57 355.74 458.5 355.38 458.64L350.32 460.6C349.95 460.74 349.93 461.04 350.27 461.26L353.64 463.49C353.97 463.71 354.54 463.78 354.91 463.64Z" fill="#A6BDFF"/>
<path d="M344.62 467.64L349.68 465.68C350.05 465.54 350.07 465.24 349.73 465.02L346.36 462.79C346.02 462.57 345.45 462.5 345.09 462.64L340.03 464.6C339.66 464.74 339.64 465.04 339.98 465.26L343.35 467.49C343.68 467.71 344.25 467.78 344.62 467.64Z" fill="#A6BDFF"/>
<path d="M334.32 471.63L339.38 469.67C339.75 469.53 339.77 469.23 339.43 469.01L336.06 466.78C335.72 466.56 335.15 466.49 334.79 466.63L329.73 468.59C329.36 468.73 329.34 469.03 329.68 469.25L333.05 471.48C333.39 471.71 333.96 471.77 334.32 471.63Z" fill="#A6BDFF"/>
<path d="M324.03 475.63L329.09 473.67C329.46 473.53 329.48 473.23 329.14 473.01L325.77 470.78C325.43 470.56 324.86 470.49 324.5 470.63L319.44 472.59C319.07 472.73 319.05 473.03 319.39 473.25L322.75 475.48C323.09 475.71 323.66 475.77 324.03 475.63Z" fill="#A6BDFF"/>
<path d="M362.59 468.72L367.65 466.76C368.02 466.62 368.04 466.32 367.7 466.1L364.33 463.87C363.99 463.65 363.42 463.58 363.06 463.72L358 465.68C357.63 465.82 357.61 466.12 357.95 466.34L361.32 468.57C361.65 468.8 362.22 468.86 362.59 468.72Z" fill="#A6BDFF"/>
<path d="M352.29 472.72L357.35 470.76C357.72 470.62 357.74 470.32 357.4 470.1L354.03 467.87C353.69 467.65 353.12 467.58 352.76 467.72L347.7 469.68C347.33 469.82 347.31 470.12 347.65 470.34L351.02 472.57C351.36 472.79 351.93 472.86 352.29 472.72Z" fill="#A6BDFF"/>
<path d="M342 476.72L347.06 474.76C347.43 474.62 347.45 474.32 347.11 474.1L343.75 471.87C343.41 471.65 342.84 471.58 342.48 471.72L337.42 473.68C337.05 473.82 337.03 474.12 337.37 474.34L340.74 476.57C341.06 476.79 341.63 476.86 342 476.72Z" fill="#A6BDFF"/>
<path d="M331.71 480.71L336.77 478.75C337.14 478.61 337.16 478.31 336.82 478.09L333.45 475.86C333.11 475.64 332.54 475.57 332.18 475.71L327.12 477.67C326.75 477.81 326.73 478.11 327.07 478.33L330.44 480.56C330.77 480.79 331.34 480.85 331.71 480.71Z" fill="#A6BDFF"/>
<path d="M339.43 485.82L344.49 483.86C344.86 483.72 344.88 483.42 344.54 483.2L341.18 480.97C340.84 480.75 340.27 480.68 339.91 480.82L334.85 482.78C334.48 482.92 334.46 483.22 334.8 483.44L338.17 485.67C338.5 485.89 339.07 485.96 339.43 485.82Z" fill="#A6BDFF"/>
<path d="M359.97 477.8L365.03 475.84C365.4 475.7 365.42 475.4 365.08 475.18L361.71 472.95C361.37 472.73 360.8 472.66 360.44 472.8L355.38 474.76C355.01 474.9 354.99 475.2 355.33 475.42L358.7 477.65C359.03 477.88 359.6 477.94 359.97 477.8Z" fill="#A6BDFF"/>
<path d="M349.67 481.8L354.73 479.84C355.1 479.7 355.12 479.4 354.78 479.18L351.42 476.95C351.08 476.73 350.51 476.66 350.15 476.8L345.09 478.76C344.72 478.9 344.7 479.2 345.04 479.42L348.41 481.65C348.74 481.87 349.31 481.94 349.67 481.8Z" fill="#A6BDFF"/>
<path d="M347.11 490.9L352.17 488.94C352.54 488.8 352.56 488.5 352.22 488.28L348.85 486.05C348.51 485.83 347.94 485.76 347.58 485.9L342.52 487.86C342.15 488 342.13 488.3 342.47 488.52L345.84 490.75C346.18 490.98 346.74 491.04 347.11 490.9Z" fill="#A6BDFF"/>
<path d="M367.64 482.88L372.7 480.92C373.07 480.78 373.09 480.48 372.75 480.26L369.38 478.03C369.04 477.81 368.47 477.74 368.11 477.88L363.05 479.84C362.68 479.98 362.66 480.28 363 480.5L366.37 482.73C366.71 482.96 367.28 483.02 367.64 482.88Z" fill="#A6BDFF"/>
<path d="M357.35 486.88L362.41 484.92C362.78 484.78 362.8 484.48 362.46 484.26L359.09 482.03C358.75 481.81 358.18 481.74 357.82 481.88L352.76 483.84C352.39 483.98 352.37 484.28 352.71 484.5L356.08 486.73C356.42 486.96 356.98 487.02 357.35 486.88Z" fill="#A6BDFF"/>
<path d="M382.08 475.8L374.22 470.59L371.31 468.67C370.97 468.45 370.4 468.38 370.04 468.52L364.98 470.48C364.61 470.62 364.59 470.92 364.93 471.14L368.3 473.37L375.7 478.27C376.19 478.59 377.01 478.69 377.54 478.48L382 476.75C382.54 476.56 382.57 476.13 382.08 475.8Z" fill="#F95738"/>
<path d="M316.81 463.84L319.82 462.67V462.66L343.51 453.47V453.48L352.36 450.05C352.71 449.91 353.09 450.08 353.13 450.4L353.73 454.91C353.76 455.14 353.6 455.38 353.34 455.48L349.97 456.79V456.8L326.28 465.99V465.98L317.99 469.2C317.35 469.45 316.66 469.14 316.59 468.56L316.1 464.88C316.05 464.46 316.34 464.03 316.81 463.84Z" fill="#8CAAFF"/>
<path d="M602.15 43.6299C602.15 43.6299 590.87 109.77 644.43 162.4C697.99 215.03 740.78 277.34 744.98 353.17V220.73C744.98 220.73 738.88 119.86 602.15 43.6299Z" fill="#C9DFF2"/>
<defs>
<linearGradient id="paint0_linear_112_104" x1="350.418" y1="145.331" x2="310.754" y2="42.4121" gradientUnits="userSpaceOnUse">
<stop offset="0.1123" stop-color="#4183D6"/>
<stop offset="0.2937" stop-color="#568FDC"/>
<stop offset="0.5445" stop-color="#6C9CE3"/>
<stop offset="0.7845" stop-color="#79A4E7"/>
<stop offset="1" stop-color="#7EA7E8"/>
</linearGradient>
<linearGradient id="paint1_linear_112_104" x1="70.4738" y1="441.545" x2="600.151" y2="441.545" gradientUnits="userSpaceOnUse">
<stop offset="0.0676" stop-color="#A8C4E5"/>
<stop offset="0.0685" stop-color="#A8C4E5"/>
<stop offset="0.1354" stop-color="#8DB7E9"/>
<stop offset="0.2114" stop-color="#77ACEC"/>
<stop offset="0.3011" stop-color="#66A4EF"/>
<stop offset="0.4121" stop-color="#5B9EF1"/>
<stop offset="0.5677" stop-color="#549BF2"/>
<stop offset="1" stop-color="#529AF2"/>
</linearGradient>
</defs>
</svg>
