<svg width="42" height="42" viewBox="0 0 42 42" fill="none" xmlns="http://www.w3.org/2000/svg">
<g clip-path="url(#clip0_107_154)">
<path d="M39.821 32.4779H2.93676C2.42308 32.4779 1.93054 32.2738 1.56731 31.9106C1.20408 31.5474 0.999878 31.0547 0.999878 30.5411V6.96211C0.999873 6.44765 1.20371 5.95414 1.5667 5.58957C1.92968 5.22501 2.42231 5.01907 2.93676 5.01685H39.821C40.3362 5.01906 40.8296 5.22473 41.194 5.58906C41.5583 5.95339 41.7641 6.44687 41.7663 6.96211V30.5411C41.7641 31.0555 41.5581 31.5481 41.1935 31.9111C40.829 32.2741 40.3355 32.4779 39.821 32.4779V32.4779ZM2.94519 6.01052C2.69728 6.01052 2.45951 6.10902 2.28421 6.28432C2.10891 6.45962 2.01057 6.69739 2.01057 6.9453V30.5242C2.01057 30.7722 2.10891 31.0099 2.28421 31.1852C2.45951 31.3605 2.69728 31.459 2.94519 31.459H39.821C40.0689 31.459 40.3065 31.3605 40.4818 31.1852C40.6571 31.0099 40.7556 30.7722 40.7556 30.5242V6.9453C40.7556 6.69739 40.6571 6.45962 40.4818 6.28432C40.3065 6.10902 40.0689 6.01052 39.821 6.01052H2.94519Z" fill="#F95738"/>
<path d="M23.9978 37H18.7684C18.7025 37.0012 18.6368 36.9891 18.5756 36.9646C18.5143 36.9402 18.4585 36.9038 18.4115 36.8575C18.3645 36.8113 18.3272 36.7561 18.3017 36.6953C18.2762 36.6345 18.2631 36.5691 18.2631 36.5032V31.9811C18.2631 31.9147 18.2763 31.849 18.3017 31.7877C18.3271 31.7264 18.3642 31.6707 18.4111 31.6238C18.458 31.5769 18.5138 31.5397 18.5752 31.5143C18.6365 31.4889 18.7021 31.4758 18.7684 31.4758H24.0147C24.1487 31.4758 24.2773 31.529 24.372 31.6238C24.4668 31.7186 24.5201 31.8471 24.5201 31.9811V36.5032C24.5201 36.5706 24.5063 36.6374 24.4798 36.6994C24.4532 36.7613 24.4143 36.8172 24.3654 36.8637C24.3166 36.9102 24.2589 36.9463 24.1956 36.9697C24.1324 36.9931 24.0652 37.0035 23.9978 37V37ZM19.2569 35.9979H23.4674V32.4779H19.2569V35.9979Z" fill="#F95738"/>
<path d="M41.2528 27.6948H1.4968C1.3628 27.6948 1.23424 27.6416 1.13948 27.5468C1.04473 27.4521 0.991455 27.3236 0.991455 27.1896C0.991455 27.0556 1.04473 26.9271 1.13948 26.8323C1.23424 26.7375 1.3628 26.6843 1.4968 26.6843H41.2528C41.3868 26.6843 41.5149 26.7375 41.6097 26.8323C41.7044 26.9271 41.7577 27.0556 41.7577 27.1896C41.7577 27.3236 41.7044 27.4521 41.6097 27.5468C41.5149 27.6416 41.3868 27.6948 41.2528 27.6948Z" fill="#F95738"/>
<path d="M28.0316 36.9999H14.7602C14.6943 37.001 14.6286 36.989 14.5674 36.9645C14.5061 36.94 14.4504 36.9036 14.4033 36.8574C14.3563 36.8111 14.319 36.756 14.2935 36.6952C14.268 36.6343 14.2549 36.569 14.2549 36.503C14.2549 36.369 14.3082 36.2405 14.4029 36.1458C14.4977 36.051 14.6262 35.9978 14.7602 35.9978H28.0316C28.0976 35.9978 28.1628 36.0109 28.2236 36.0364C28.2845 36.0619 28.3398 36.0993 28.3861 36.1463C28.4323 36.1933 28.4685 36.2491 28.493 36.3104C28.5174 36.3716 28.5294 36.4371 28.5283 36.503C28.5295 36.5686 28.5175 36.6337 28.493 36.6945C28.4684 36.7553 28.432 36.8106 28.3856 36.8569C28.3393 36.9033 28.284 36.9398 28.2232 36.9644C28.1624 36.989 28.0972 37.0011 28.0316 36.9999V36.9999Z" fill="#F95738"/>
<path d="M24.8486 20.4022C24.7212 20.3995 24.5987 20.3518 24.5032 20.2675C24.4101 20.1716 24.358 20.0432 24.358 19.9096C24.358 19.7759 24.4101 19.6475 24.5032 19.5517L30.8778 12.7474C30.9736 12.6543 31.1023 12.6023 31.2359 12.6023C31.3696 12.6023 31.4978 12.6543 31.5936 12.7474C31.6407 12.7944 31.6783 12.8502 31.7038 12.9116C31.7293 12.973 31.7421 13.0389 31.7421 13.1054C31.7421 13.1719 31.7293 13.2377 31.7038 13.2991C31.6783 13.3605 31.6407 13.4163 31.5936 13.4633L25.2191 20.2675C25.1698 20.314 25.1113 20.35 25.0476 20.3732C24.9839 20.3963 24.9163 20.4062 24.8486 20.4022V20.4022Z" fill="#F95738"/>
<path d="M22.524 20.7725C22.4389 20.7741 22.3548 20.7538 22.2798 20.7136L15.543 17.0757C15.4247 17.0131 15.3361 16.9061 15.2967 16.7782C15.2572 16.6503 15.27 16.512 15.3324 16.3936C15.3965 16.2768 15.504 16.19 15.6318 16.1522C15.7595 16.1143 15.8972 16.1284 16.0146 16.1915L22.7514 19.8294C22.8468 19.8842 22.9218 19.9685 22.9648 20.0697C23.0079 20.1709 23.0166 20.2834 22.9899 20.3901C22.9632 20.4968 22.9024 20.5918 22.8168 20.6609C22.7312 20.7299 22.6257 20.7691 22.5158 20.7725H22.524Z" fill="#F95738"/>
<path d="M10.2379 21.9095C10.1245 21.9103 10.0142 21.8716 9.9262 21.8001C9.87407 21.7591 9.83085 21.7081 9.79873 21.6501C9.76661 21.5921 9.74617 21.5283 9.73911 21.4624C9.73205 21.3965 9.73851 21.3298 9.75761 21.2663C9.77671 21.2028 9.80828 21.1438 9.85054 21.0927L13.2695 16.798C13.3524 16.6934 13.4729 16.6258 13.6055 16.61C13.738 16.5942 13.8717 16.6315 13.9768 16.7138C14.0289 16.7547 14.0721 16.8057 14.1042 16.8637C14.1364 16.9217 14.1568 16.9856 14.1639 17.0515C14.1709 17.1174 14.1645 17.184 14.1454 17.2475C14.1263 17.311 14.0947 17.3701 14.0524 17.4212L10.6334 21.7243C10.5848 21.7819 10.5241 21.8284 10.4558 21.8603C10.3875 21.8923 10.3133 21.9091 10.2379 21.9095V21.9095Z" fill="#F95738"/>
<path d="M9.27802 24.4778H9.19373C8.94951 24.4672 8.70974 24.4081 8.48855 24.304C8.26736 24.1999 8.06935 24.0529 7.90549 23.8715C7.73964 23.692 7.61173 23.481 7.52926 23.2509C7.44679 23.0209 7.41119 22.7766 7.42523 22.5326C7.43629 22.2893 7.49543 22.0506 7.59875 21.83C7.70207 21.6095 7.84776 21.4114 8.02761 21.2472C8.20747 21.083 8.41785 20.9558 8.64686 20.8729C8.87586 20.79 9.11903 20.7531 9.36232 20.7641C9.60561 20.7752 9.84408 20.8341 10.0646 20.9374C10.2852 21.0407 10.4835 21.1864 10.6477 21.3663C10.8119 21.5462 10.939 21.7566 11.0219 21.9856C11.1047 22.2146 11.1419 22.4577 11.1308 22.701V22.701C11.1092 23.1783 10.9046 23.6292 10.5597 23.9599C10.2148 24.2907 9.7559 24.4762 9.27802 24.4778V24.4778ZM9.27802 21.7662C9.05468 21.7662 8.84055 21.855 8.68263 22.0129C8.5247 22.1708 8.43592 22.385 8.43592 22.6083C8.42968 22.7202 8.44602 22.8322 8.48362 22.9378C8.52121 23.0434 8.57952 23.1403 8.65508 23.2231C8.73067 23.3047 8.82158 23.3705 8.92276 23.4168C9.02394 23.463 9.13312 23.4888 9.24431 23.4925C9.35489 23.4975 9.46548 23.4807 9.56955 23.4429C9.67363 23.4052 9.76909 23.3474 9.8508 23.2727C9.93252 23.198 9.99879 23.108 10.0457 23.0077C10.0926 22.9074 10.1193 22.7989 10.1242 22.6884C10.1292 22.5778 10.1126 22.4673 10.0749 22.3632C10.0372 22.2591 9.97935 22.1635 9.90467 22.0818C9.82999 22 9.73972 21.9339 9.63945 21.887C9.53919 21.84 9.43055 21.8133 9.31996 21.8083L9.27802 21.7662Z" fill="#F95738"/>
<path d="M14.5579 17.8252H14.4736C13.9989 17.7801 13.5595 17.5544 13.2463 17.1947C12.933 16.8351 12.7701 16.3689 12.7907 15.8924C12.8112 15.4159 13.0139 14.9655 13.3569 14.6341C13.6999 14.3027 14.1567 14.1157 14.6336 14.1116C15.1251 14.1356 15.5872 14.3524 15.9198 14.715C16.2524 15.0776 16.4291 15.5567 16.4107 16.0484C16.3912 16.5265 16.1874 16.9785 15.8421 17.3097C15.4967 17.6409 15.0364 17.8256 14.5579 17.8252V17.8252ZM14.5579 15.1137C14.3936 15.114 14.2329 15.1623 14.0958 15.2528C13.9586 15.3433 13.8507 15.4719 13.7857 15.6229C13.7208 15.7738 13.7016 15.9405 13.7302 16.1023C13.7588 16.2641 13.8341 16.4141 13.9469 16.5337C14.0597 16.6532 14.2048 16.7371 14.3647 16.7751C14.5246 16.813 14.6921 16.8034 14.8466 16.7474C15.0011 16.6913 15.136 16.5913 15.2343 16.4596C15.3327 16.3279 15.3902 16.1703 15.4 16.0063C15.4069 15.8915 15.3903 15.7765 15.3511 15.6685C15.3119 15.5604 15.2507 15.4615 15.1718 15.3779C15.0929 15.2942 14.9978 15.2277 14.8922 15.1822C14.7866 15.1368 14.6729 15.1135 14.5579 15.1137Z" fill="#F95738"/>
<path d="M23.8209 22.8359H23.7367C23.4845 22.837 23.2349 22.7868 23.0027 22.6885C22.7705 22.5901 22.5606 22.4455 22.3859 22.2636C22.2113 22.0817 22.0755 21.8662 21.9867 21.6301C21.8979 21.3941 21.858 21.1424 21.8695 20.8905C21.8809 20.6386 21.9435 20.3916 22.0533 20.1646C22.1631 19.9375 22.3176 19.7352 22.508 19.5698C22.6984 19.4045 22.9204 19.2795 23.1606 19.2026C23.4007 19.1256 23.6542 19.0982 23.9052 19.1222C24.1489 19.1313 24.3884 19.1888 24.6096 19.2915C24.8308 19.3941 25.0292 19.5398 25.1935 19.7201C25.5237 20.0857 25.6964 20.5669 25.6737 21.0591C25.6647 21.3028 25.607 21.5422 25.5043 21.7634C25.4017 21.9846 25.2561 22.1832 25.0759 22.3474C24.7324 22.6598 24.2852 22.8338 23.8209 22.8359V22.8359ZM23.8209 20.1243C23.6093 20.1227 23.4048 20.2009 23.2482 20.3432C23.164 20.4191 23.0961 20.5111 23.0483 20.6138C23.0006 20.7166 22.9743 20.8279 22.9706 20.9411C22.9606 21.1645 23.0394 21.3827 23.1902 21.5477C23.341 21.7127 23.5511 21.8111 23.7745 21.8211C23.9978 21.8312 24.2164 21.7521 24.3814 21.6013C24.5464 21.4505 24.6448 21.2402 24.6548 21.0169V21.0169C24.6617 20.9021 24.6447 20.7872 24.6055 20.6791C24.5663 20.571 24.5055 20.4721 24.4266 20.3885C24.3477 20.3049 24.2526 20.2383 24.147 20.1928C24.0414 20.1474 23.9277 20.1241 23.8127 20.1243H23.8209Z" fill="#F95738"/>
<path d="M32.2422 13.8674H32.1579C31.792 13.8491 31.4398 13.7232 31.1451 13.5055C30.8505 13.2878 30.6262 12.9879 30.5012 12.6435C30.3762 12.2991 30.356 11.9255 30.4424 11.5695C30.5289 11.2134 30.7182 10.8908 30.9873 10.6421C31.1671 10.4764 31.3781 10.348 31.6077 10.2643C31.8374 10.1805 32.0814 10.143 32.3257 10.154C32.5699 10.1649 32.8096 10.2241 33.0308 10.3282C33.2521 10.4322 33.4505 10.5789 33.6147 10.76C33.859 11.0254 34.0204 11.3563 34.0794 11.7122C34.1383 12.0681 34.0923 12.4334 33.9465 12.7633C33.8008 13.0933 33.5618 13.3736 33.259 13.5697C32.9563 13.7658 32.6029 13.8692 32.2422 13.8674ZM32.2422 11.1642C32.0188 11.1642 31.8047 11.2529 31.6468 11.4108C31.4889 11.5688 31.4001 11.783 31.4001 12.0063C31.3932 12.1211 31.4098 12.2361 31.449 12.3441C31.4882 12.4522 31.5494 12.5511 31.6283 12.6347C31.7072 12.7184 31.8023 12.7849 31.9079 12.8304C32.0135 12.8758 32.1272 12.8992 32.2422 12.899C32.357 12.9059 32.4721 12.8892 32.5802 12.8499C32.6883 12.8107 32.7868 12.7498 32.8705 12.6709C32.9541 12.592 33.0208 12.4968 33.0662 12.3912C33.1116 12.2856 33.1351 12.1718 33.1349 12.0569C33.1349 11.8335 33.0461 11.6193 32.8882 11.4614C32.7302 11.3034 32.5161 11.2148 32.2928 11.2148L32.2422 11.1642Z" fill="#F95738"/>
</g>
<defs>
<clipPath id="clip0_107_154">
<rect width="40.7579" height="32" fill="white" transform="translate(1 5)"/>
</clipPath>
</defs>
</svg>
