<svg width="42" height="42" viewBox="0 0 42 42" fill="none" xmlns="http://www.w3.org/2000/svg">
<g clip-path="url(#clip0_107_155)">
<path d="M38.6379 14.9705H3.50527C3.39152 14.968 3.28188 14.9277 3.19349 14.856C3.10509 14.7844 3.04297 14.6854 3.01688 14.5747C2.98921 14.4638 2.9999 14.3468 3.04731 14.2428C3.09473 14.1388 3.17601 14.0539 3.27788 14.0021L20.8442 5.05051C20.9154 5.01737 20.993 5.00024 21.0716 5.00024C21.1501 5.00024 21.2277 5.01737 21.299 5.05051L38.8653 14.0021C38.9661 14.055 39.0466 14.14 39.0939 14.2436C39.1412 14.3472 39.1528 14.4635 39.1268 14.5744C39.1007 14.6852 39.0384 14.7843 38.95 14.856C38.8615 14.9277 38.7517 14.968 38.6379 14.9705V14.9705ZM5.62739 13.9937H36.5158L21.0716 6.12L5.62739 13.9937Z" fill="#F95738"/>
<path d="M38.6378 36.9999H3.50524C3.38139 36.9839 3.26759 36.9234 3.18513 36.8296C3.10267 36.7359 3.05725 36.6153 3.05725 36.4904C3.05725 36.3655 3.10267 36.245 3.18513 36.1512C3.26759 36.0574 3.38139 35.9969 3.50524 35.981H38.6378C38.7617 35.9969 38.8755 36.0574 38.958 36.1512C39.0404 36.245 39.086 36.3655 39.086 36.4904C39.086 36.6153 39.0404 36.7359 38.958 36.8296C38.8755 36.9234 38.7617 36.9839 38.6378 36.9999Z" fill="#F95738"/>
<path d="M36.6925 34.4654H5.45054C5.31653 34.4654 5.18797 34.4122 5.09322 34.3174C4.99846 34.2226 4.94519 34.0941 4.94519 33.9601C4.94519 33.8261 4.99846 33.6976 5.09322 33.6029C5.18797 33.5081 5.31653 33.4548 5.45054 33.4548H36.6925C36.8265 33.4548 36.9551 33.5081 37.0498 33.6029C37.1446 33.6976 37.1979 33.8261 37.1979 33.9601C37.1979 34.0941 37.1446 34.2226 37.0498 34.3174C36.9551 34.4122 36.8265 34.4654 36.6925 34.4654Z" fill="#F95738"/>
<path d="M11.5221 34.4654H8.41477C8.28077 34.4654 8.15221 34.4122 8.05745 34.3174C7.96269 34.2227 7.90942 34.0941 7.90942 33.9601V14.457C7.90942 14.323 7.96269 14.1944 8.05745 14.0997C8.15221 14.0049 8.28077 13.9517 8.41477 13.9517H11.5221C11.6561 13.9517 11.7847 14.0049 11.8794 14.0997C11.9742 14.1944 12.0273 14.323 12.0273 14.457V33.9601C12.0273 34.0941 11.9742 34.2227 11.8794 34.3174C11.7847 34.4122 11.6561 34.4654 11.5221 34.4654V34.4654ZM8.92844 33.4548H11.0168V14.9707H8.92844V33.4548Z" fill="#F95738"/>
<path d="M22.6211 34.4653H19.5221C19.455 34.4664 19.3884 34.4541 19.3262 34.4292C19.2639 34.4043 19.2071 34.3672 19.1593 34.3202C19.1115 34.2732 19.0736 34.2171 19.0477 34.1552C19.0218 34.0934 19.0084 34.027 19.0084 33.9599V14.4568C19.0084 14.3898 19.0218 14.3234 19.0477 14.2615C19.0736 14.1997 19.1115 14.1436 19.1593 14.0965C19.2071 14.0495 19.2639 14.0125 19.3262 13.9876C19.3884 13.9627 19.455 13.9504 19.5221 13.9515H22.6211C22.6881 13.9504 22.7547 13.9627 22.817 13.9876C22.8793 14.0125 22.9359 14.0495 22.9838 14.0965C23.0316 14.1436 23.0696 14.1997 23.0955 14.2615C23.1214 14.3234 23.1348 14.3898 23.1348 14.4568V33.9599C23.1348 34.027 23.1214 34.0934 23.0955 34.1552C23.0696 34.2171 23.0316 34.2732 22.9838 34.3202C22.9359 34.3672 22.8793 34.4043 22.817 34.4292C22.7547 34.4541 22.6881 34.4664 22.6211 34.4653V34.4653ZM20.0273 33.4547H22.1157V14.9705H20.0273V33.4547Z" fill="#F95738"/>
<path d="M33.72 34.4654H30.6126C30.4786 34.4654 30.3501 34.4122 30.2553 34.3174C30.1606 34.2227 30.1073 34.0941 30.1073 33.9601V14.457C30.1073 14.323 30.1606 14.1944 30.2553 14.0997C30.3501 14.0049 30.4786 13.9517 30.6126 13.9517H33.72C33.854 13.9517 33.9825 14.0049 34.0773 14.0997C34.172 14.1944 34.2252 14.323 34.2252 14.457V33.9601C34.2252 34.0941 34.172 34.2227 34.0773 34.3174C33.9825 34.4122 33.854 34.4654 33.72 34.4654V34.4654ZM31.1179 33.4548H33.2147V14.9707H31.1179V33.4548Z" fill="#F95738"/>
<path d="M11.5221 17.3117H8.41477C8.28077 17.3117 8.15221 17.2585 8.05745 17.1637C7.96269 17.069 7.90942 16.9404 7.90942 16.8064V14.457C7.90942 14.323 7.96269 14.1944 8.05745 14.0997C8.15221 14.0049 8.28077 13.9517 8.41477 13.9517H11.5221C11.6561 13.9517 11.7847 14.0049 11.8794 14.0997C11.9742 14.1944 12.0273 14.323 12.0273 14.457V16.8064C12.0273 16.9404 11.9742 17.069 11.8794 17.1637C11.7847 17.2585 11.6561 17.3117 11.5221 17.3117V17.3117ZM8.92844 16.2927H11.0168V14.9707H8.92844V16.2927Z" fill="#F95738"/>
<path d="M22.6211 17.3115H19.5221C19.455 17.3126 19.3884 17.3004 19.3262 17.2755C19.2639 17.2506 19.2071 17.2136 19.1593 17.1665C19.1115 17.1195 19.0736 17.0634 19.0477 17.0015C19.0218 16.9397 19.0084 16.8733 19.0084 16.8062V14.4568C19.0084 14.3898 19.0218 14.3234 19.0477 14.2615C19.0736 14.1997 19.1115 14.1436 19.1593 14.0965C19.2071 14.0495 19.2639 14.0125 19.3262 13.9876C19.3884 13.9627 19.455 13.9504 19.5221 13.9515H22.6211C22.6881 13.9504 22.7547 13.9627 22.817 13.9876C22.8793 14.0125 22.9359 14.0495 22.9838 14.0965C23.0316 14.1436 23.0696 14.1997 23.0955 14.2615C23.1214 14.3234 23.1348 14.3898 23.1348 14.4568V16.8062C23.1348 16.8733 23.1214 16.9397 23.0955 17.0015C23.0696 17.0634 23.0316 17.1195 22.9838 17.1665C22.9359 17.2136 22.8793 17.2506 22.817 17.2755C22.7547 17.3004 22.6881 17.3126 22.6211 17.3115V17.3115ZM20.0273 16.2926H22.1157V14.9705H20.0273V16.2926Z" fill="#F95738"/>
<path d="M33.72 17.3117H30.6126C30.4786 17.3117 30.3501 17.2585 30.2553 17.1637C30.1606 17.069 30.1073 16.9404 30.1073 16.8064V14.457C30.1073 14.323 30.1606 14.1944 30.2553 14.0997C30.3501 14.0049 30.4786 13.9517 30.6126 13.9517H33.72C33.854 13.9517 33.9825 14.0049 34.0773 14.0997C34.172 14.1944 34.2252 14.323 34.2252 14.457V16.8064C34.2252 16.9404 34.172 17.069 34.0773 17.1637C33.9825 17.2585 33.854 17.3117 33.72 17.3117V17.3117ZM31.1179 16.2927H33.2147V14.9707H31.1179V16.2927Z" fill="#F95738"/>
</g>
<defs>
<clipPath id="clip0_107_155">
<rect width="36.1432" height="32" fill="white" transform="translate(3 5)"/>
</clipPath>
</defs>
</svg>
