<svg width="42" height="42" viewBox="0 0 42 42" fill="none" xmlns="http://www.w3.org/2000/svg">
<g clip-path="url(#clip0_107_153)">
<path d="M27.6852 32.8287C27.4184 32.8281 27.1569 32.7543 26.9292 32.6154L20.9891 29.0568L15.0491 32.6154C14.8044 32.7616 14.5224 32.8332 14.2376 32.8214C13.9528 32.8095 13.6776 32.7148 13.4459 32.5488C13.2142 32.3827 13.0361 32.1526 12.9333 31.8868C12.8306 31.6209 12.8077 31.3308 12.8675 31.0521L14.3984 24.0104L9.29 19.7633C9.06978 19.5799 8.90824 19.336 8.82541 19.0617C8.74258 18.7873 8.74211 18.4948 8.82406 18.2202C8.906 17.9456 9.06675 17.7011 9.28637 17.517C9.506 17.333 9.77481 17.2175 10.0595 17.1848L16.5395 16.4477L19.6635 10.0001C19.7817 9.75184 19.9681 9.54234 20.201 9.39606C20.4338 9.24977 20.7034 9.17271 20.9784 9.17384V9.17384C21.2537 9.17252 21.5238 9.24948 21.7571 9.39576C21.9903 9.54204 22.1772 9.75163 22.296 10.0001L25.4172 16.4477L31.8972 17.1848C32.1821 17.217 32.4513 17.3322 32.6713 17.5161C32.8913 17.7 33.0524 17.9444 33.1347 18.2191C33.2169 18.4938 33.2167 18.7865 33.134 19.0611C33.0513 19.3356 32.8897 19.5798 32.6694 19.7633L27.5583 24.0104L29.0892 31.0521C29.1349 31.2653 29.1326 31.4861 29.0823 31.6984C29.032 31.9106 28.9351 32.109 28.7986 32.2792C28.6621 32.4493 28.4894 32.5869 28.2931 32.6819C28.0967 32.777 27.8817 32.8271 27.6636 32.8287H27.6852ZM21 10.3051C20.9374 10.3043 20.876 10.3218 20.8233 10.3554C20.7705 10.3889 20.7287 10.4372 20.703 10.4942L17.4441 17.2199C17.403 17.3063 17.3405 17.3806 17.2625 17.4359C17.1845 17.4913 17.0936 17.5256 16.9986 17.5358L10.208 18.308C10.144 18.316 10.0837 18.3426 10.0345 18.3843C9.98537 18.4261 9.94942 18.4813 9.93109 18.5431C9.91276 18.605 9.91286 18.6708 9.93135 18.7327C9.94984 18.7945 9.98592 18.8496 10.0352 18.8912L15.4028 23.3489C15.4824 23.4154 15.5423 23.5024 15.576 23.6004C15.6098 23.6984 15.6162 23.8038 15.5945 23.9051L13.9907 31.2816C13.9768 31.3445 13.9815 31.4101 14.0045 31.4703C14.0274 31.5305 14.0676 31.5827 14.1199 31.6204C14.1722 31.658 14.2344 31.6795 14.2988 31.6821C14.3632 31.6848 14.4269 31.6685 14.4821 31.6352V31.6352L20.6922 27.9011C20.7801 27.848 20.881 27.82 20.9838 27.82C21.0866 27.82 21.1874 27.848 21.2754 27.9011L27.4854 31.6352C27.5408 31.668 27.6046 31.684 27.6689 31.6812C27.7332 31.6783 27.7954 31.6569 27.8477 31.6194C27.9001 31.5819 27.9404 31.53 27.9638 31.4701C27.9872 31.4101 27.9926 31.3446 27.9795 31.2816L26.3595 23.9051C26.3378 23.8038 26.3442 23.6984 26.378 23.6004C26.4118 23.5024 26.4717 23.4154 26.5512 23.3489L31.9269 18.8804C31.9763 18.8386 32.0124 18.7833 32.0307 18.7213C32.0491 18.6592 32.0489 18.5932 32.0303 18.5313C32.0117 18.4693 31.9753 18.4142 31.9258 18.3726C31.8762 18.331 31.8157 18.3048 31.7514 18.2972L24.9609 17.525C24.866 17.5144 24.7753 17.4798 24.6974 17.4245C24.6195 17.3693 24.5568 17.2951 24.5154 17.2091L21.2565 10.4833C21.2307 10.4264 21.1889 10.3781 21.1361 10.3446C21.0834 10.311 21.022 10.2935 20.9595 10.2944L21 10.3051Z" fill="#F95738"/>
<path d="M21 40C17.2422 40 13.5687 38.8857 10.4442 36.7979C7.31964 34.7102 4.88435 31.7428 3.44628 28.271C2.00822 24.7992 1.63197 20.9789 2.36509 17.2933C3.09821 13.6077 4.9078 10.2222 7.56499 7.56498C10.2222 4.90779 13.6076 3.0982 17.2933 2.36508C20.9789 1.63196 24.7992 2.00824 28.271 3.44631C31.7428 4.88437 34.7102 7.31963 36.7979 10.4442C38.8857 13.5687 40 17.2422 40 21C39.9943 26.0374 37.9907 30.8668 34.4287 34.4287C30.8668 37.9907 26.0374 39.9943 21 40V40ZM21 3.13402C17.4658 3.13402 14.011 4.18207 11.0724 6.14563C8.13386 8.10919 5.84358 10.9001 4.49122 14.1653C3.13886 17.4305 2.78517 21.0234 3.47486 24.4897C4.16455 27.956 5.86665 31.1399 8.3659 33.6387C10.8652 36.1376 14.0493 37.8392 17.5157 38.5284C20.982 39.2176 24.5749 38.8633 27.8399 37.5105C31.1049 36.1576 33.8955 33.8669 35.8586 30.928C37.8217 27.9892 38.8692 24.5342 38.8687 21C38.8637 16.2627 36.9794 11.7209 33.6294 8.37143C30.2794 5.02191 25.7373 3.13831 21 3.13402Z" fill="#F95738"/>
</g>
<defs>
<clipPath id="clip0_107_153">
<rect width="38" height="38" fill="white" transform="translate(2 2)"/>
</clipPath>
</defs>
</svg>
