<svg width="42" height="42" viewBox="0 0 42 42" fill="none" xmlns="http://www.w3.org/2000/svg">
<g clip-path="url(#clip0_107_156)">
<path d="M20.76 16.1599C20.176 16.1704 19.598 16.0395 19.0756 15.7783C18.5532 15.5171 18.1019 15.1334 17.76 14.6599C17.7185 14.6054 17.6881 14.5433 17.6706 14.4771C17.6532 14.4109 17.6491 14.342 17.6584 14.2741C17.6677 14.2063 17.6902 14.1409 17.7248 14.0819C17.7594 14.0228 17.8055 13.9712 17.8601 13.9299C17.9131 13.8881 17.9738 13.8573 18.0388 13.8392C18.1038 13.8211 18.1718 13.8162 18.2387 13.8245C18.3057 13.8329 18.3703 13.8545 18.4289 13.888C18.4875 13.9216 18.5389 13.9663 18.58 14.0199C18.9812 14.5461 19.5551 14.9139 20.2009 15.0584C20.8466 15.2029 21.5228 15.1149 22.1101 14.8099C22.3584 14.6891 22.5614 14.4917 22.6892 14.2469C22.817 14.0021 22.8629 13.7227 22.82 13.4499C22.7863 13.1375 22.6624 12.8417 22.4636 12.5985C22.2647 12.3552 21.9993 12.1751 21.6999 12.0799L19.4799 11.4199C18.9518 11.3135 18.4787 11.0226 18.1452 10.5994C17.8118 10.1763 17.6398 9.64833 17.6599 9.10995C17.6599 8.54995 17.9 6.71996 20.82 6.74996C21.4783 6.73605 22.1239 6.93209 22.6633 7.30965C23.2027 7.68722 23.6078 8.22668 23.82 8.84994C23.8391 8.9156 23.8449 8.98438 23.8374 9.05233C23.8298 9.12028 23.8091 9.18604 23.7761 9.24593C23.7431 9.30583 23.6986 9.35861 23.6452 9.40133C23.5919 9.44405 23.5307 9.47591 23.4651 9.49495C23.3994 9.514 23.3306 9.51982 23.2627 9.51229C23.1947 9.50475 23.129 9.48397 23.0691 9.45101C23.0092 9.41804 22.9563 9.37365 22.9135 9.32027C22.8708 9.2669 22.8391 9.20551 22.82 9.13985C22.6652 8.72478 22.3817 8.3701 22.0112 8.12728C21.6407 7.88445 21.2024 7.76619 20.76 7.78988C19.76 7.78988 18.6599 7.99995 18.6499 9.11995C18.6499 9.59995 18.7699 10.1199 19.7199 10.4199L21.9399 11.0799C22.4396 11.2336 22.8834 11.5308 23.2158 11.9343C23.5482 12.3378 23.7548 12.83 23.81 13.3499C23.8682 13.8428 23.7702 14.3415 23.5297 14.7757C23.2893 15.2099 22.9186 15.5576 22.4699 15.7699C21.934 16.0196 21.3512 16.1526 20.76 16.1599V16.1599Z" fill="#F95738"/>
<path d="M20.8601 7.76001C20.7222 7.76001 20.59 7.70518 20.4924 7.60767C20.3949 7.51015 20.3401 7.3779 20.3401 7.23999V5.48999C20.3401 5.35208 20.3949 5.21983 20.4924 5.12231C20.59 5.0248 20.7222 4.96997 20.8601 4.96997C20.998 4.96997 21.1303 5.0248 21.2278 5.12231C21.3253 5.21983 21.3801 5.35208 21.3801 5.48999V7.23999C21.3801 7.3779 21.3253 7.51015 21.2278 7.60767C21.1303 7.70518 20.998 7.76001 20.8601 7.76001V7.76001Z" fill="#F95738"/>
<path d="M20.8601 18.0299C20.7222 18.0299 20.59 17.9752 20.4924 17.8777C20.3949 17.7802 20.3401 17.6479 20.3401 17.51V15.76C20.3401 15.6221 20.3949 15.4897 20.4924 15.3922C20.59 15.2947 20.7222 15.24 20.8601 15.24C20.998 15.24 21.1303 15.2947 21.2278 15.3922C21.3253 15.4897 21.3801 15.6221 21.3801 15.76V17.51C21.3776 17.6471 21.3218 17.7778 21.2249 17.8748C21.1279 17.9717 20.9972 18.0273 20.8601 18.0299V18.0299Z" fill="#F95738"/>
<path d="M20.76 21.45C18.8351 21.45 16.9535 20.8791 15.3532 19.8095C13.7529 18.7399 12.5059 17.2197 11.7697 15.4412C11.0336 13.6627 10.8415 11.7058 11.2177 9.81805C11.594 7.93034 12.5215 6.19673 13.8833 4.83636C15.245 3.47599 16.9798 2.55002 18.8679 2.17572C20.756 1.80141 22.7127 1.9956 24.4904 2.73358C26.2682 3.47155 27.787 4.72019 28.8549 6.32159C29.9229 7.923 30.4919 9.8052 30.4899 11.73C30.4873 14.3089 29.4611 16.7811 27.6367 18.6037C25.8122 20.4263 23.3388 21.45 20.76 21.45V21.45ZM20.76 3.03997C19.0412 3.03997 17.3611 3.5497 15.9321 4.50457C14.503 5.45944 13.3891 6.81659 12.7314 8.40448C12.0737 9.99237 11.9017 11.7397 12.237 13.4254C12.5723 15.111 13.3999 16.6595 14.6152 17.8748C15.8305 19.0901 17.379 19.9177 19.0646 20.253C20.7503 20.5883 22.4975 20.4162 24.0854 19.7585C25.6733 19.1008 27.0307 17.987 27.9855 16.5579C28.9404 15.1289 29.4499 13.4488 29.4499 11.73C29.4499 9.42531 28.5344 7.21495 26.9047 5.58526C25.275 3.95557 23.0647 3.03997 20.76 3.03997V3.03997Z" fill="#F95738"/>
<path d="M20.76 28.5499C20.6764 28.5491 20.5942 28.5286 20.52 28.49L9.06007 22.4099C8.97773 22.3648 8.90913 22.2982 8.86159 22.2172C8.81405 22.1362 8.78933 22.0439 8.79005 21.9499C8.79137 21.8553 8.81796 21.7627 8.8672 21.6818C8.91645 21.6009 8.98657 21.5347 9.07008 21.49L14.72 18.5699C14.781 18.5389 14.8475 18.5203 14.9158 18.5151C14.984 18.5099 15.0527 18.5182 15.1177 18.5395C15.1827 18.5609 15.2431 18.595 15.2949 18.6396C15.3468 18.6843 15.3892 18.7388 15.4199 18.7999C15.4807 18.9225 15.4917 19.0638 15.4507 19.1942C15.4097 19.3247 15.3199 19.4342 15.2 19.5L10.4299 21.96L20.76 27.4399L31.1001 21.96L26.28 19.47C26.2189 19.4392 26.1643 19.3967 26.1196 19.3448C26.075 19.293 26.0409 19.2328 26.0195 19.1677C25.9982 19.1027 25.9899 19.0341 25.9951 18.9658C26.0003 18.8976 26.0191 18.8309 26.0501 18.7699C26.1158 18.65 26.2253 18.5603 26.3557 18.5193C26.4862 18.4783 26.6275 18.4892 26.75 18.5499L32.46 21.49C32.5437 21.5341 32.614 21.6003 32.6629 21.6814C32.7118 21.7625 32.7376 21.8553 32.7376 21.9499C32.7376 22.0446 32.7118 22.1374 32.6629 22.2185C32.614 22.2996 32.5437 22.3658 32.46 22.4099L21.01 28.49C20.9327 28.5298 20.847 28.5503 20.76 28.5499Z" fill="#F95738"/>
<path d="M20.76 40.0001C20.6654 40.0008 20.5723 39.9766 20.49 39.9301C20.4135 39.8825 20.3504 39.8162 20.3066 39.7374C20.2629 39.6587 20.24 39.5702 20.24 39.4801V28.03C20.242 27.9392 20.2668 27.8504 20.3123 27.7717C20.3577 27.6931 20.4223 27.6272 20.5 27.5801C20.5778 27.5363 20.6658 27.5133 20.7551 27.5133C20.8445 27.5133 20.9322 27.5363 21.01 27.5801L25.5701 30.05L31.98 26.66C32.0578 26.6162 32.1458 26.5933 32.2351 26.5933C32.3244 26.5933 32.4121 26.6162 32.49 26.66C32.5665 26.7076 32.6296 26.7739 32.6733 26.8527C32.7171 26.9314 32.74 27.02 32.74 27.1101V33.41C32.7387 33.5047 32.7121 33.5974 32.6628 33.6783C32.6136 33.7592 32.5435 33.8255 32.46 33.8701L21.01 39.9401C20.9327 39.9799 20.847 40.0005 20.76 40.0001V40.0001ZM21.28 28.9V38.6201L31.7 33.1001V27.9701L25.8101 31.0901C25.7344 31.1295 25.6502 31.1501 25.5649 31.1501C25.4796 31.1501 25.3957 31.1295 25.3201 31.0901L21.28 28.9Z" fill="#F95738"/>
<path d="M25.5901 31.15C25.5031 31.1504 25.4174 31.1299 25.3401 31.0901L20.54 28.4901C20.4572 28.4446 20.3878 28.3782 20.3386 28.2975C20.2895 28.2168 20.2624 28.1245 20.26 28.03C20.2602 27.9351 20.2866 27.8421 20.3359 27.761C20.3853 27.6799 20.4558 27.6139 20.54 27.5701L32 21.5001C32.0741 21.4561 32.1589 21.4329 32.2451 21.4329C32.3313 21.4329 32.4158 21.4561 32.49 21.5001L37.29 24.1001C37.3711 24.1465 37.4385 24.2134 37.4854 24.2942C37.5322 24.375 37.5566 24.4667 37.5566 24.5601C37.5566 24.6534 37.5322 24.7452 37.4854 24.8259C37.4385 24.9067 37.3711 24.9736 37.29 25.02L25.8301 31.0901C25.7564 31.1299 25.6739 31.1504 25.5901 31.15ZM21.8801 28.03L25.5901 30.03L35.9399 24.54L32.24 22.54L21.8801 28.03Z" fill="#F95738"/>
<path d="M20.7601 40.0001C20.6764 39.9993 20.5942 39.9787 20.5201 39.9401L9.0601 33.8701C8.97775 33.825 8.90915 33.7584 8.86161 33.6774C8.81407 33.5964 8.78935 33.5039 8.79008 33.41V27.1101C8.78703 27.0195 8.80854 26.9297 8.85258 26.8505C8.89662 26.7712 8.96152 26.7053 9.04008 26.66C9.11793 26.6162 9.20563 26.5933 9.29496 26.5933C9.38429 26.5933 9.47224 26.6162 9.55009 26.66L15.96 30.05L20.5101 27.5801C20.5846 27.5431 20.6668 27.5238 20.75 27.5238C20.8333 27.5238 20.9154 27.5431 20.99 27.5801C21.0776 27.6233 21.1514 27.6903 21.2027 27.7734C21.254 27.8566 21.2808 27.9524 21.2801 28.05V39.5001C21.2831 39.5907 21.2614 39.6805 21.2173 39.7598C21.1733 39.839 21.1086 39.9048 21.0301 39.9501C20.9465 39.9916 20.853 40.009 20.7601 40.0001ZM9.83012 33.1001L20.24 38.6201V28.9L16.24 31.0901C16.1626 31.1296 16.0769 31.1501 15.99 31.1501C15.9031 31.1501 15.8174 31.1296 15.74 31.0901L9.86015 27.9701L9.83012 33.1001Z" fill="#F95738"/>
<path d="M15.98 31.1499C15.893 31.1503 15.8073 31.1298 15.73 31.09L4.28003 25.0199C4.19652 24.9752 4.12639 24.909 4.07715 24.8281C4.02791 24.7472 4.00132 24.6546 4 24.5599C4.00133 24.4664 4.02689 24.3749 4.07422 24.2943C4.12155 24.2137 4.18904 24.1467 4.27002 24.1L9.08008 21.5C9.15489 21.4579 9.23913 21.4358 9.32495 21.4358C9.41077 21.4358 9.49526 21.4579 9.57007 21.5L21.03 27.58C21.1087 27.6218 21.175 27.6835 21.2224 27.7589C21.2698 27.8344 21.2965 27.921 21.3 28.01C21.3039 28.0999 21.2849 28.1893 21.2446 28.2698C21.2044 28.3503 21.1443 28.4191 21.0701 28.47V28.47L16.27 31.0699C16.1823 31.1221 16.0821 31.1497 15.98 31.1499ZM5.62012 24.5499L15.98 30.0399L19.6799 28.0399L9.33008 22.5499L5.62012 24.5499Z" fill="#F95738"/>
<path d="M9.33008 22.47C9.24313 22.4705 9.15737 22.4498 9.08008 22.41L4.28003 19.8601C4.19652 19.8154 4.12639 19.7492 4.07715 19.6683C4.02791 19.5874 4.00132 19.4947 4 19.4C4.00024 19.3051 4.02657 19.212 4.07593 19.1309C4.12529 19.0498 4.19582 18.9838 4.28003 18.94L11.99 14.94C12.0508 14.9029 12.1187 14.8788 12.1892 14.869C12.2597 14.8592 12.3313 14.8639 12.3999 14.883C12.4685 14.9021 12.5325 14.935 12.5879 14.9798C12.6432 15.0246 12.6887 15.0804 12.7217 15.1435C12.7546 15.2066 12.7742 15.2759 12.7793 15.3469C12.7844 15.4179 12.7748 15.4892 12.7512 15.5564C12.7276 15.6235 12.6905 15.6851 12.6421 15.7374C12.5937 15.7896 12.5352 15.8314 12.47 15.8601L5.63989 19.41L9.33008 21.41L14.8501 18.56C14.9109 18.5229 14.9785 18.4988 15.0491 18.489C15.1196 18.4792 15.1914 18.4839 15.26 18.503C15.3286 18.5221 15.3927 18.555 15.448 18.5998C15.5033 18.6446 15.5488 18.7004 15.5818 18.7635C15.6147 18.8266 15.6343 18.8958 15.6394 18.9669C15.6445 19.0379 15.6349 19.1092 15.6113 19.1763C15.5877 19.2435 15.5506 19.3051 15.5022 19.3574C15.4538 19.4096 15.3953 19.4514 15.3301 19.4801L9.57007 22.4801C9.49036 22.4951 9.40826 22.4917 9.33008 22.47V22.47Z" fill="#F95738"/>
<path d="M32.2399 22.4701C32.1606 22.4842 32.0793 22.4842 32 22.4701L26.1899 19.4701C26.07 19.4044 25.9802 19.2948 25.9392 19.1643C25.8982 19.0339 25.9092 18.8926 25.9699 18.7701C26.0007 18.7089 26.0433 18.6545 26.0952 18.6098C26.147 18.5651 26.2071 18.5311 26.2722 18.5097C26.3372 18.4883 26.4058 18.4801 26.4741 18.4853C26.5423 18.4905 26.6088 18.5091 26.6699 18.5401L32.2399 21.4201L35.9299 19.4201L29.01 15.8301C28.8901 15.7644 28.8002 15.6548 28.7592 15.5243C28.7182 15.3939 28.7293 15.2527 28.79 15.1302C28.8208 15.069 28.8634 15.0144 28.9152 14.9698C28.9671 14.9251 29.0272 14.8912 29.0922 14.8698C29.1573 14.8484 29.2259 14.84 29.2941 14.8453C29.3624 14.8505 29.4289 14.8691 29.4899 14.9001L37.28 18.9601C37.3637 19.0043 37.4337 19.0705 37.4826 19.1515C37.5315 19.2326 37.5576 19.3254 37.5576 19.4201C37.5576 19.5148 37.5315 19.6077 37.4826 19.6888C37.4337 19.7698 37.3637 19.836 37.28 19.8802L32.4699 22.4301C32.3975 22.4614 32.3187 22.4751 32.2399 22.4701Z" fill="#F95738"/>
</g>
<defs>
<clipPath id="clip0_107_156">
<rect width="33.56" height="38" fill="white" transform="translate(4 2)"/>
</clipPath>
</defs>
</svg>
